<?xml version="1.0" encoding="UTF-8"?>
<svg xmlns="http://www.w3.org/2000/svg" version="1.1" width="512" height="512" viewBox="0 0 512 512"><rect x="0" y="0" width="512" height="512" fill="#ffffff"/><g transform="scale(17.655)"><g transform="translate(0,0)"><path fill-rule="evenodd" d="M8 0L8 4L9 4L9 5L8 5L8 7L9 7L9 6L10 6L10 9L11 9L11 8L12 8L12 9L13 9L13 11L12 11L12 12L11 12L11 13L9 13L9 14L5 14L5 13L2 13L2 15L1 15L1 16L2 16L2 15L3 15L3 17L0 17L0 18L2 18L2 19L5 19L5 16L6 16L6 17L7 17L7 18L6 18L6 19L7 19L7 18L8 18L8 19L10 19L10 21L12 21L12 22L10 22L10 23L8 23L8 25L9 25L9 26L10 26L10 27L8 27L8 29L12 29L12 28L13 28L13 29L15 29L15 28L16 28L16 29L19 29L19 28L20 28L20 29L26 29L26 28L25 28L25 27L23 27L23 26L22 26L22 25L24 25L24 26L26 26L26 27L27 27L27 29L28 29L28 28L29 28L29 21L27 21L27 20L26 20L26 19L28 19L28 20L29 20L29 17L26 17L26 16L25 16L25 15L26 15L26 14L25 14L25 12L23 12L23 10L24 10L24 11L26 11L26 10L25 10L25 9L28 9L28 10L27 10L27 15L28 15L28 16L29 16L29 13L28 13L28 11L29 11L29 8L25 8L25 9L24 9L24 8L23 8L23 10L22 10L22 12L21 12L21 11L20 11L20 12L19 12L19 10L20 10L20 9L21 9L21 8L20 8L20 9L18 9L18 10L16 10L16 9L15 9L15 8L14 8L14 9L13 9L13 8L12 8L12 7L13 7L13 6L12 6L12 7L11 7L11 3L10 3L10 2L9 2L9 0ZM13 0L13 1L11 1L11 2L12 2L12 5L14 5L14 7L15 7L15 5L16 5L16 4L19 4L19 6L18 6L18 7L17 7L17 6L16 6L16 8L18 8L18 7L19 7L19 6L20 6L20 7L21 7L21 6L20 6L20 4L21 4L21 1L20 1L20 0L19 0L19 2L17 2L17 3L16 3L16 2L15 2L15 1L16 1L16 0ZM13 2L13 3L14 3L14 4L16 4L16 3L15 3L15 2ZM19 2L19 4L20 4L20 2ZM0 8L0 11L1 11L1 10L3 10L3 11L2 11L2 12L4 12L4 11L5 11L5 12L6 12L6 13L8 13L8 12L6 12L6 11L8 11L8 10L9 10L9 12L10 12L10 11L11 11L11 10L9 10L9 9L7 9L7 8L4 8L4 9L7 9L7 10L6 10L6 11L5 11L5 10L3 10L3 9L2 9L2 8ZM14 10L14 11L13 11L13 12L12 12L12 13L11 13L11 14L12 14L12 13L13 13L13 15L12 15L12 16L11 16L11 20L12 20L12 21L13 21L13 22L14 22L14 21L13 21L13 20L14 20L14 19L15 19L15 18L14 18L14 15L15 15L15 17L16 17L16 18L18 18L18 19L20 19L20 20L21 20L21 18L22 18L22 19L23 19L23 20L24 20L24 19L26 19L26 18L24 18L24 19L23 19L23 18L22 18L22 17L24 17L24 14L23 14L23 12L22 12L22 14L23 14L23 15L22 15L22 16L21 16L21 15L20 15L20 14L21 14L21 12L20 12L20 14L18 14L18 16L16 16L16 15L15 15L15 14L14 14L14 12L15 12L15 13L16 13L16 14L17 14L17 12L15 12L15 10ZM0 12L0 14L1 14L1 12ZM4 14L4 16L5 16L5 14ZM6 15L6 16L7 16L7 17L8 17L8 16L9 16L9 17L10 17L10 16L9 16L9 15L8 15L8 16L7 16L7 15ZM19 15L19 17L18 17L18 18L20 18L20 15ZM12 16L12 17L13 17L13 16ZM3 17L3 18L4 18L4 17ZM12 19L12 20L13 20L13 19ZM0 20L0 21L2 21L2 20ZM6 20L6 21L7 21L7 20ZM15 20L15 21L16 21L16 22L18 22L18 23L20 23L20 22L19 22L19 21L17 21L17 20ZM8 21L8 22L9 22L9 21ZM21 21L21 24L24 24L24 21ZM22 22L22 23L23 23L23 22ZM25 22L25 24L26 24L26 25L27 25L27 26L28 26L28 23L27 23L27 22ZM10 23L10 25L11 25L11 27L10 27L10 28L12 28L12 27L13 27L13 28L14 28L14 27L15 27L15 26L13 26L13 25L12 25L12 24L13 24L13 23L12 23L12 24L11 24L11 23ZM14 23L14 25L15 25L15 23ZM16 23L16 26L18 26L18 28L19 28L19 26L20 26L20 28L21 28L21 27L22 27L22 26L20 26L20 25L17 25L17 23ZM0 0L0 7L7 7L7 0ZM1 1L1 6L6 6L6 1ZM2 2L2 5L5 5L5 2ZM22 0L22 7L29 7L29 0ZM23 1L23 6L28 6L28 1ZM24 2L24 5L27 5L27 2ZM0 22L0 29L7 29L7 22ZM1 23L1 28L6 28L6 23ZM2 24L2 27L5 27L5 24Z" fill="#000000"/></g></g></svg>
