<?xml version="1.0" encoding="UTF-8"?>
<svg xmlns="http://www.w3.org/2000/svg" version="1.1" width="512" height="512" viewBox="0 0 512 512"><rect x="0" y="0" width="512" height="512" fill="#ffffff"/><g transform="scale(17.655)"><g transform="translate(0,0)"><path fill-rule="evenodd" d="M9 0L9 1L8 1L8 2L9 2L9 3L8 3L8 4L10 4L10 7L11 7L11 4L12 4L12 5L13 5L13 6L12 6L12 9L14 9L14 8L13 8L13 6L14 6L14 7L15 7L15 6L16 6L16 7L17 7L17 6L16 6L16 5L15 5L15 6L14 6L14 5L13 5L13 4L14 4L14 3L13 3L13 4L12 4L12 2L13 2L13 1L11 1L11 2L10 2L10 0ZM20 0L20 1L21 1L21 0ZM15 1L15 3L17 3L17 2L16 2L16 1ZM20 2L20 7L21 7L21 2ZM10 3L10 4L11 4L11 3ZM8 5L8 7L9 7L9 5ZM18 6L18 8L19 8L19 9L18 9L18 10L19 10L19 9L20 9L20 10L22 10L22 8L21 8L21 9L20 9L20 8L19 8L19 6ZM0 8L0 10L1 10L1 11L0 11L0 15L1 15L1 14L2 14L2 18L3 18L3 17L4 17L4 15L3 15L3 14L6 14L6 15L5 15L5 17L7 17L7 18L6 18L6 19L7 19L7 18L8 18L8 19L9 19L9 20L10 20L10 18L11 18L11 21L8 21L8 20L6 20L6 21L8 21L8 23L9 23L9 24L8 24L8 29L9 29L9 28L10 28L10 29L12 29L12 27L13 27L13 26L11 26L11 25L9 25L9 24L11 24L11 21L12 21L12 22L13 22L13 23L12 23L12 25L13 25L13 24L14 24L14 25L15 25L15 24L17 24L17 25L19 25L19 26L18 26L18 28L15 28L15 27L17 27L17 26L15 26L15 27L14 27L14 28L15 28L15 29L20 29L20 25L24 25L24 26L23 26L23 27L25 27L25 20L26 20L26 19L28 19L28 18L29 18L29 17L28 17L28 16L26 16L26 17L28 17L28 18L26 18L26 19L25 19L25 16L24 16L24 14L25 14L25 15L26 15L26 14L27 14L27 15L28 15L28 14L29 14L29 12L25 12L25 11L26 11L26 10L27 10L27 11L28 11L28 10L29 10L29 9L28 9L28 8L27 8L27 9L26 9L26 8L25 8L25 9L24 9L24 8L23 8L23 15L22 15L22 14L21 14L21 11L20 11L20 15L19 15L19 12L17 12L17 14L18 14L18 16L20 16L20 18L21 18L21 20L20 20L20 19L19 19L19 17L18 17L18 19L19 19L19 20L17 20L17 21L19 21L19 20L20 20L20 23L19 23L19 22L18 22L18 23L19 23L19 24L17 24L17 23L16 23L16 22L14 22L14 21L12 21L12 19L13 19L13 18L14 18L14 16L15 16L15 17L16 17L16 16L15 16L15 15L16 15L16 14L15 14L15 15L14 15L14 16L13 16L13 15L12 15L12 17L13 17L13 18L11 18L11 13L12 13L12 14L14 14L14 12L13 12L13 13L12 13L12 11L14 11L14 10L11 10L11 11L10 11L10 9L11 9L11 8L6 8L6 9L5 9L5 8ZM15 8L15 9L16 9L16 8ZM1 9L1 10L2 10L2 11L1 11L1 12L2 12L2 14L3 14L3 13L6 13L6 14L7 14L7 15L6 15L6 16L8 16L8 17L9 17L9 15L10 15L10 14L9 14L9 12L8 12L8 13L6 13L6 12L7 12L7 11L8 11L8 10L9 10L9 9L8 9L8 10L7 10L7 9L6 9L6 10L5 10L5 11L4 11L4 9ZM6 10L6 11L5 11L5 12L6 12L6 11L7 11L7 10ZM15 10L15 13L16 13L16 10ZM24 10L24 11L25 11L25 10ZM10 12L10 13L11 13L11 12ZM27 13L27 14L28 14L28 13ZM8 14L8 15L9 15L9 14ZM20 15L20 16L21 16L21 15ZM0 16L0 21L1 21L1 16ZM22 16L22 17L24 17L24 16ZM4 18L4 19L3 19L3 20L2 20L2 21L3 21L3 20L4 20L4 21L5 21L5 20L4 20L4 19L5 19L5 18ZM15 18L15 19L14 19L14 20L15 20L15 21L16 21L16 18ZM23 18L23 19L22 19L22 20L23 20L23 19L24 19L24 20L25 20L25 19L24 19L24 18ZM27 20L27 21L28 21L28 22L27 22L27 23L28 23L28 22L29 22L29 21L28 21L28 20ZM21 21L21 24L24 24L24 21ZM9 22L9 23L10 23L10 22ZM22 22L22 23L23 23L23 22ZM14 23L14 24L15 24L15 23ZM19 24L19 25L20 25L20 24ZM26 24L26 25L27 25L27 26L26 26L26 27L27 27L27 28L26 28L26 29L27 29L27 28L28 28L28 26L29 26L29 24ZM9 26L9 27L10 27L10 28L11 28L11 27L10 27L10 26ZM21 27L21 28L22 28L22 29L25 29L25 28L22 28L22 27ZM0 0L0 7L7 7L7 0ZM1 1L1 6L6 6L6 1ZM2 2L2 5L5 5L5 2ZM22 0L22 7L29 7L29 0ZM23 1L23 6L28 6L28 1ZM24 2L24 5L27 5L27 2ZM0 22L0 29L7 29L7 22ZM1 23L1 28L6 28L6 23ZM2 24L2 27L5 27L5 24Z" fill="#000000"/></g></g></svg>
