<?xml version="1.0" encoding="UTF-8"?>
<svg xmlns="http://www.w3.org/2000/svg" version="1.1" width="512" height="512" viewBox="0 0 512 512"><rect x="0" y="0" width="512" height="512" fill="#ffffff"/><g transform="scale(17.655)"><g transform="translate(0,0)"><path fill-rule="evenodd" d="M8 0L8 4L9 4L9 5L8 5L8 7L9 7L9 6L10 6L10 9L11 9L11 8L12 8L12 9L13 9L13 11L12 11L12 12L11 12L11 13L10 13L10 15L9 15L9 14L6 14L6 13L8 13L8 12L6 12L6 13L5 13L5 14L6 14L6 15L9 15L9 17L7 17L7 16L6 16L6 17L5 17L5 16L4 16L4 15L2 15L2 14L4 14L4 12L5 12L5 11L7 11L7 10L6 10L6 9L7 9L7 8L4 8L4 9L3 9L3 11L2 11L2 10L1 10L1 9L2 9L2 8L0 8L0 11L2 11L2 13L1 13L1 15L0 15L0 18L1 18L1 16L2 16L2 19L4 19L4 20L0 20L0 21L4 21L4 20L6 20L6 21L8 21L8 22L9 22L9 23L8 23L8 25L9 25L9 23L10 23L10 24L12 24L12 25L13 25L13 26L15 26L15 27L14 27L14 28L13 28L13 27L12 27L12 28L11 28L11 25L10 25L10 26L9 26L9 27L8 27L8 29L10 29L10 28L11 28L11 29L12 29L12 28L13 28L13 29L15 29L15 27L17 27L17 28L16 28L16 29L19 29L19 28L20 28L20 29L26 29L26 28L25 28L25 27L23 27L23 26L22 26L22 25L24 25L24 26L26 26L26 27L27 27L27 29L28 29L28 28L29 28L29 21L27 21L27 20L26 20L26 19L28 19L28 20L29 20L29 17L26 17L26 16L25 16L25 15L26 15L26 14L25 14L25 12L23 12L23 10L24 10L24 11L26 11L26 10L25 10L25 9L28 9L28 10L27 10L27 12L28 12L28 11L29 11L29 8L25 8L25 9L24 9L24 8L23 8L23 10L22 10L22 12L21 12L21 11L20 11L20 12L19 12L19 10L20 10L20 9L21 9L21 8L20 8L20 9L18 9L18 10L16 10L16 9L15 9L15 8L14 8L14 9L13 9L13 8L12 8L12 7L13 7L13 6L12 6L12 7L11 7L11 3L10 3L10 2L9 2L9 0ZM13 0L13 1L11 1L11 2L12 2L12 5L14 5L14 7L15 7L15 5L16 5L16 4L19 4L19 6L18 6L18 7L17 7L17 6L16 6L16 8L18 8L18 7L19 7L19 6L20 6L20 7L21 7L21 6L20 6L20 4L21 4L21 1L20 1L20 0L19 0L19 2L17 2L17 3L16 3L16 2L15 2L15 1L16 1L16 0ZM13 2L13 3L14 3L14 4L16 4L16 3L15 3L15 2ZM19 2L19 4L20 4L20 2ZM9 10L9 12L10 12L10 11L11 11L11 10ZM14 10L14 11L13 11L13 12L12 12L12 13L11 13L11 14L12 14L12 13L13 13L13 15L12 15L12 16L11 16L11 15L10 15L10 16L11 16L11 20L10 20L10 18L9 18L9 19L6 19L6 20L9 20L9 21L10 21L10 23L11 23L11 22L12 22L12 21L13 21L13 22L14 22L14 21L13 21L13 20L14 20L14 19L15 19L15 18L14 18L14 15L15 15L15 17L16 17L16 18L18 18L18 19L20 19L20 20L21 20L21 18L22 18L22 19L23 19L23 20L24 20L24 19L26 19L26 18L24 18L24 19L23 19L23 18L22 18L22 17L24 17L24 14L23 14L23 12L22 12L22 14L23 14L23 15L22 15L22 16L21 16L21 15L20 15L20 14L21 14L21 12L20 12L20 14L18 14L18 16L16 16L16 15L15 15L15 14L14 14L14 12L15 12L15 13L16 13L16 14L17 14L17 12L15 12L15 10ZM27 13L27 15L29 15L29 13ZM19 15L19 17L18 17L18 18L20 18L20 15ZM12 16L12 17L13 17L13 16ZM3 17L3 18L4 18L4 17ZM6 17L6 18L7 18L7 17ZM12 19L12 20L11 20L11 21L12 21L12 20L13 20L13 19ZM15 20L15 21L16 21L16 22L18 22L18 23L20 23L20 22L19 22L19 21L17 21L17 20ZM21 21L21 24L24 24L24 21ZM22 22L22 23L23 23L23 22ZM25 22L25 24L26 24L26 25L27 25L27 26L28 26L28 23L27 23L27 22ZM12 23L12 24L13 24L13 23ZM14 23L14 25L15 25L15 23ZM16 23L16 26L18 26L18 27L19 27L19 26L20 26L20 28L21 28L21 27L22 27L22 26L20 26L20 25L17 25L17 23ZM9 27L9 28L10 28L10 27ZM0 0L0 7L7 7L7 0ZM1 1L1 6L6 6L6 1ZM2 2L2 5L5 5L5 2ZM22 0L22 7L29 7L29 0ZM23 1L23 6L28 6L28 1ZM24 2L24 5L27 5L27 2ZM0 22L0 29L7 29L7 22ZM1 23L1 28L6 28L6 23ZM2 24L2 27L5 27L5 24Z" fill="#000000"/></g></g></svg>
