<?xml version="1.0" encoding="UTF-8"?>
<svg xmlns="http://www.w3.org/2000/svg" version="1.1" width="512" height="512" viewBox="0 0 512 512"><rect x="0" y="0" width="512" height="512" fill="#ffffff"/><g transform="scale(20.48)"><g transform="translate(0,0)"><path fill-rule="evenodd" d="M8 0L8 1L9 1L9 2L8 2L8 5L9 5L9 4L11 4L11 5L10 5L10 10L9 10L9 8L8 8L8 9L7 9L7 8L6 8L6 9L7 9L7 10L5 10L5 9L4 9L4 8L0 8L0 9L2 9L2 11L1 11L1 12L0 12L0 13L1 13L1 12L2 12L2 13L3 13L3 14L4 14L4 15L3 15L3 16L2 16L2 17L4 17L4 15L5 15L5 16L6 16L6 17L8 17L8 18L9 18L9 17L10 17L10 16L9 16L9 15L8 15L8 13L7 13L7 12L9 12L9 14L10 14L10 13L11 13L11 16L12 16L12 17L13 17L13 16L12 16L12 14L14 14L14 15L15 15L15 14L16 14L16 16L14 16L14 17L16 17L16 19L15 19L15 18L13 18L13 21L15 21L15 22L14 22L14 23L11 23L11 22L9 22L9 21L11 21L11 20L12 20L12 19L11 19L11 20L9 20L9 21L8 21L8 25L9 25L9 24L10 24L10 25L12 25L12 24L15 24L15 23L17 23L17 25L20 25L20 24L21 24L21 25L25 25L25 24L23 24L23 23L24 23L24 22L25 22L25 21L24 21L24 20L23 20L23 21L21 21L21 20L22 20L22 19L21 19L21 18L22 18L22 17L23 17L23 18L24 18L24 19L25 19L25 17L24 17L24 16L25 16L25 15L23 15L23 14L22 14L22 15L23 15L23 16L22 16L22 17L21 17L21 16L20 16L20 14L21 14L21 13L22 13L22 12L24 12L24 14L25 14L25 11L24 11L24 10L23 10L23 8L20 8L20 9L19 9L19 11L18 11L18 10L17 10L17 9L18 9L18 8L17 8L17 9L16 9L16 12L15 12L15 10L14 10L14 9L15 9L15 8L16 8L16 7L17 7L17 6L16 6L16 7L15 7L15 6L14 6L14 5L17 5L17 4L15 4L15 1L13 1L13 0L12 0L12 1L11 1L11 0L10 0L10 1L9 1L9 0ZM16 0L16 3L17 3L17 0ZM11 2L11 4L12 4L12 3L13 3L13 2ZM12 5L12 6L11 6L11 8L12 8L12 6L13 6L13 9L14 9L14 6L13 6L13 5ZM8 6L8 7L9 7L9 6ZM24 8L24 9L25 9L25 8ZM11 9L11 10L12 10L12 9ZM20 9L20 10L22 10L22 11L23 11L23 10L22 10L22 9ZM3 10L3 11L4 11L4 12L7 12L7 11L4 11L4 10ZM8 10L8 11L9 11L9 10ZM13 10L13 11L11 11L11 13L12 13L12 12L13 12L13 11L14 11L14 10ZM20 11L20 12L19 12L19 13L20 13L20 12L21 12L21 11ZM16 12L16 13L17 13L17 12ZM4 13L4 14L7 14L7 13ZM1 14L1 15L0 15L0 16L1 16L1 15L2 15L2 14ZM17 14L17 16L18 16L18 14ZM6 15L6 16L7 16L7 15ZM17 17L17 20L20 20L20 17ZM18 18L18 19L19 19L19 18ZM15 20L15 21L16 21L16 22L17 22L17 23L18 23L18 24L19 24L19 23L18 23L18 22L17 22L17 21L16 21L16 20ZM22 22L22 23L23 23L23 22ZM10 23L10 24L11 24L11 23ZM0 0L0 7L7 7L7 0ZM1 1L1 6L6 6L6 1ZM2 2L2 5L5 5L5 2ZM18 0L18 7L25 7L25 0ZM19 1L19 6L24 6L24 1ZM20 2L20 5L23 5L23 2ZM0 18L0 25L7 25L7 18ZM1 19L1 24L6 24L6 19ZM2 20L2 23L5 23L5 20Z" fill="#000000"/></g></g></svg>
