<?xml version="1.0" encoding="UTF-8"?>
<svg xmlns="http://www.w3.org/2000/svg" version="1.1" width="512" height="512" viewBox="0 0 512 512"><rect x="0" y="0" width="512" height="512" fill="#ffffff"/><g transform="scale(17.655)"><g transform="translate(0,0)"><path fill-rule="evenodd" d="M10 0L10 1L8 1L8 3L9 3L9 4L8 4L8 8L6 8L6 9L5 9L5 10L4 10L4 8L3 8L3 9L2 9L2 8L0 8L0 9L1 9L1 10L0 10L0 11L1 11L1 12L0 12L0 14L1 14L1 12L3 12L3 11L2 11L2 10L4 10L4 12L5 12L5 13L4 13L4 14L5 14L5 13L7 13L7 14L6 14L6 15L5 15L5 16L4 16L4 15L1 15L1 18L0 18L0 19L1 19L1 18L4 18L4 19L5 19L5 20L4 20L4 21L8 21L8 23L9 23L9 24L10 24L10 25L8 25L8 26L10 26L10 27L11 27L11 26L12 26L12 28L10 28L10 29L12 29L12 28L13 28L13 29L15 29L15 28L16 28L16 27L17 27L17 29L19 29L19 28L18 28L18 26L17 26L17 25L19 25L19 27L20 27L20 25L22 25L22 26L21 26L21 28L20 28L20 29L26 29L26 27L27 27L27 29L28 29L28 27L29 27L29 26L28 26L28 25L29 25L29 23L28 23L28 24L27 24L27 22L26 22L26 21L25 21L25 20L26 20L26 19L25 19L25 18L27 18L27 17L28 17L28 22L29 22L29 17L28 17L28 15L29 15L29 14L28 14L28 15L27 15L27 17L26 17L26 14L27 14L27 13L26 13L26 12L27 12L27 10L29 10L29 9L28 9L28 8L26 8L26 11L25 11L25 12L24 12L24 10L23 10L23 12L21 12L21 13L20 13L20 15L21 15L21 16L23 16L23 13L25 13L25 15L24 15L24 17L21 17L21 18L20 18L20 16L19 16L19 18L18 18L18 19L17 19L17 18L16 18L16 19L15 19L15 17L14 17L14 16L12 16L12 12L14 12L14 13L13 13L13 15L15 15L15 14L14 14L14 13L16 13L16 15L17 15L17 16L18 16L18 15L19 15L19 14L17 14L17 13L19 13L19 12L20 12L20 11L22 11L22 9L25 9L25 8L22 8L22 9L20 9L20 8L19 8L19 11L18 11L18 12L17 12L17 11L15 11L15 10L13 10L13 9L14 9L14 8L16 8L16 9L17 9L17 10L18 10L18 7L19 7L19 6L20 6L20 7L21 7L21 6L20 6L20 4L21 4L21 2L20 2L20 3L18 3L18 2L19 2L19 1L17 1L17 0L14 0L14 1L13 1L13 2L14 2L14 1L15 1L15 4L14 4L14 5L13 5L13 3L12 3L12 7L11 7L11 4L10 4L10 3L9 3L9 2L11 2L11 0ZM16 3L16 6L15 6L15 7L16 7L16 6L17 6L17 7L18 7L18 5L19 5L19 4L17 4L17 3ZM9 5L9 8L8 8L8 9L10 9L10 10L7 10L7 9L6 9L6 10L7 10L7 11L5 11L5 12L9 12L9 13L8 13L8 14L7 14L7 15L6 15L6 16L5 16L5 19L6 19L6 20L7 20L7 19L6 19L6 18L7 18L7 17L8 17L8 18L10 18L10 19L8 19L8 20L11 20L11 21L9 21L9 22L11 22L11 25L12 25L12 24L13 24L13 27L16 27L16 24L19 24L19 25L20 25L20 23L18 23L18 20L17 20L17 21L16 21L16 20L14 20L14 18L13 18L13 20L12 20L12 19L11 19L11 18L12 18L12 16L11 16L11 15L8 15L8 14L11 14L11 13L10 13L10 12L9 12L9 11L11 11L11 8L10 8L10 5ZM13 6L13 7L12 7L12 8L14 8L14 6ZM14 11L14 12L15 12L15 11ZM28 11L28 13L29 13L29 11ZM21 13L21 15L22 15L22 13ZM7 15L7 16L6 16L6 17L7 17L7 16L8 16L8 15ZM2 16L2 17L3 17L3 16ZM9 16L9 17L10 17L10 18L11 18L11 16ZM24 17L24 18L21 18L21 19L20 19L20 18L19 18L19 19L20 19L20 20L19 20L19 21L20 21L20 20L21 20L21 19L23 19L23 20L24 20L24 18L25 18L25 17ZM2 19L2 21L3 21L3 19ZM0 20L0 21L1 21L1 20ZM11 21L11 22L12 22L12 21ZM14 21L14 22L15 22L15 21ZM21 21L21 24L24 24L24 21ZM22 22L22 23L23 23L23 22ZM14 23L14 24L15 24L15 23ZM25 24L25 25L24 25L24 26L23 26L23 27L22 27L22 28L23 28L23 27L24 27L24 26L25 26L25 27L26 27L26 26L27 26L27 27L28 27L28 26L27 26L27 24ZM8 27L8 29L9 29L9 27ZM0 0L0 7L7 7L7 0ZM1 1L1 6L6 6L6 1ZM2 2L2 5L5 5L5 2ZM22 0L22 7L29 7L29 0ZM23 1L23 6L28 6L28 1ZM24 2L24 5L27 5L27 2ZM0 22L0 29L7 29L7 22ZM1 23L1 28L6 28L6 23ZM2 24L2 27L5 27L5 24Z" fill="#000000"/></g></g></svg>
