<?xml version="1.0" encoding="UTF-8"?>
<svg xmlns="http://www.w3.org/2000/svg" version="1.1" width="512" height="512" viewBox="0 0 512 512"><rect x="0" y="0" width="512" height="512" fill="#ffffff"/><g transform="scale(17.655)"><g transform="translate(0,0)"><path fill-rule="evenodd" d="M8 0L8 2L10 2L10 4L8 4L8 9L7 9L7 8L5 8L5 10L4 10L4 9L3 9L3 8L0 8L0 10L2 10L2 11L1 11L1 12L0 12L0 15L1 15L1 16L2 16L2 14L3 14L3 13L5 13L5 14L4 14L4 15L7 15L7 14L6 14L6 13L8 13L8 15L9 15L9 18L8 18L8 17L7 17L7 16L3 16L3 18L0 18L0 19L5 19L5 20L6 20L6 21L8 21L8 22L10 22L10 23L11 23L11 24L10 24L10 25L9 25L9 26L8 26L8 29L9 29L9 28L10 28L10 27L12 27L12 26L10 26L10 25L11 25L11 24L13 24L13 26L15 26L15 27L16 27L16 29L17 29L17 27L18 27L18 29L19 29L19 28L20 28L20 29L21 29L21 28L20 28L20 27L21 27L21 26L22 26L22 27L23 27L23 26L22 26L22 25L26 25L26 24L25 24L25 23L29 23L29 20L28 20L28 19L29 19L29 16L28 16L28 15L29 15L29 12L27 12L27 13L25 13L25 12L24 12L24 11L23 11L23 10L24 10L24 9L25 9L25 10L26 10L26 11L29 11L29 8L27 8L27 9L25 9L25 8L20 8L20 10L19 10L19 11L18 11L18 10L16 10L16 9L18 9L18 8L17 8L17 6L16 6L16 9L15 9L15 8L14 8L14 9L13 9L13 11L14 11L14 13L13 13L13 12L11 12L11 13L12 13L12 15L11 15L11 16L13 16L13 18L14 18L14 17L15 17L15 22L13 22L13 21L14 21L14 19L13 19L13 20L11 20L11 19L12 19L12 18L11 18L11 17L10 17L10 11L8 11L8 10L11 10L11 11L12 11L12 10L11 10L11 8L13 8L13 6L14 6L14 7L15 7L15 6L14 6L14 5L15 5L15 4L14 4L14 3L18 3L18 4L16 4L16 5L18 5L18 7L19 7L19 5L20 5L20 7L21 7L21 5L20 5L20 4L21 4L21 3L20 3L20 2L19 2L19 1L20 1L20 0L19 0L19 1L18 1L18 0L16 0L16 1L18 1L18 2L14 2L14 1L15 1L15 0L11 0L11 1L9 1L9 0ZM11 1L11 2L12 2L12 1ZM18 2L18 3L19 3L19 4L18 4L18 5L19 5L19 4L20 4L20 3L19 3L19 2ZM11 3L11 4L12 4L12 6L11 6L11 5L9 5L9 8L10 8L10 6L11 6L11 7L12 7L12 6L13 6L13 3ZM2 9L2 10L3 10L3 9ZM6 9L6 10L5 10L5 12L7 12L7 11L6 11L6 10L7 10L7 9ZM14 9L14 10L15 10L15 9ZM21 9L21 11L22 11L22 12L20 12L20 11L19 11L19 12L20 12L20 13L18 13L18 11L16 11L16 12L17 12L17 13L16 13L16 14L17 14L17 13L18 13L18 14L20 14L20 17L19 17L19 15L15 15L15 16L18 16L18 17L16 17L16 18L20 18L20 17L21 17L21 18L22 18L22 19L20 19L20 20L23 20L23 18L22 18L22 17L21 17L21 16L22 16L22 15L21 15L21 14L20 14L20 13L22 13L22 14L23 14L23 15L25 15L25 16L26 16L26 17L24 17L24 18L26 18L26 20L27 20L27 17L28 17L28 16L27 16L27 15L26 15L26 14L25 14L25 13L24 13L24 12L23 12L23 11L22 11L22 10L23 10L23 9ZM27 9L27 10L28 10L28 9ZM2 11L2 12L1 12L1 14L2 14L2 12L4 12L4 11ZM22 12L22 13L23 13L23 14L24 14L24 13L23 13L23 12ZM14 13L14 14L15 14L15 13ZM13 15L13 16L14 16L14 15ZM4 17L4 18L5 18L5 17ZM6 17L6 18L7 18L7 17ZM9 18L9 20L8 20L8 19L6 19L6 20L8 20L8 21L11 21L11 23L12 23L12 21L11 21L11 20L10 20L10 18ZM16 19L16 20L17 20L17 21L16 21L16 22L18 22L18 19ZM0 20L0 21L2 21L2 20ZM19 21L19 22L20 22L20 21ZM21 21L21 24L24 24L24 21ZM25 21L25 22L27 22L27 21ZM22 22L22 23L23 23L23 22ZM8 23L8 24L9 24L9 23ZM13 23L13 24L14 24L14 23ZM15 23L15 24L17 24L17 25L16 25L16 26L18 26L18 27L20 27L20 26L21 26L21 25L20 25L20 26L18 26L18 23ZM27 24L27 25L28 25L28 26L27 26L27 27L29 27L29 25L28 25L28 24ZM24 26L24 29L26 29L26 28L25 28L25 27L26 27L26 26ZM13 27L13 28L11 28L11 29L14 29L14 27ZM28 28L28 29L29 29L29 28ZM0 0L0 7L7 7L7 0ZM1 1L1 6L6 6L6 1ZM2 2L2 5L5 5L5 2ZM22 0L22 7L29 7L29 0ZM23 1L23 6L28 6L28 1ZM24 2L24 5L27 5L27 2ZM0 22L0 29L7 29L7 22ZM1 23L1 28L6 28L6 23ZM2 24L2 27L5 27L5 24Z" fill="#000000"/></g></g></svg>
