<?xml version="1.0" encoding="UTF-8"?>
<svg xmlns="http://www.w3.org/2000/svg" version="1.1" width="512" height="512" viewBox="0 0 512 512"><rect x="0" y="0" width="512" height="512" fill="#ffffff"/><g transform="scale(24.381)"><g transform="translate(0,0)"><path fill-rule="evenodd" d="M8 0L8 2L10 2L10 3L9 3L9 4L8 4L8 10L6 10L6 9L7 9L7 8L5 8L5 10L6 10L6 11L7 11L7 12L6 12L6 13L8 13L8 14L9 14L9 13L10 13L10 14L11 14L11 13L12 13L12 15L11 15L11 17L12 17L12 20L11 20L11 18L10 18L10 15L8 15L8 16L9 16L9 18L8 18L8 21L9 21L9 20L10 20L10 21L13 21L13 20L14 20L14 19L15 19L15 18L14 18L14 17L12 17L12 16L14 16L14 14L15 14L15 13L16 13L16 15L15 15L15 17L16 17L16 19L17 19L17 20L16 20L16 21L18 21L18 19L21 19L21 18L20 18L20 17L21 17L21 16L20 16L20 15L21 15L21 12L20 12L20 11L21 11L21 8L19 8L19 10L18 10L18 9L17 9L17 8L13 8L13 6L12 6L12 4L13 4L13 2L12 2L12 0L11 0L11 2L10 2L10 0ZM9 6L9 8L11 8L11 12L12 12L12 13L13 13L13 11L14 11L14 13L15 13L15 11L16 11L16 9L15 9L15 11L14 11L14 9L13 9L13 8L11 8L11 7L12 7L12 6L11 6L11 7L10 7L10 6ZM0 8L0 11L1 11L1 9L2 9L2 12L1 12L1 13L3 13L3 12L5 12L5 11L3 11L3 10L4 10L4 9L3 9L3 8ZM9 9L9 10L8 10L8 12L9 12L9 11L10 11L10 9ZM12 9L12 11L13 11L13 9ZM17 10L17 12L16 12L16 13L17 13L17 12L18 12L18 13L19 13L19 11L18 11L18 10ZM17 14L17 15L16 15L16 17L17 17L17 18L19 18L19 17L17 17L17 15L18 15L18 16L19 16L19 15L18 15L18 14ZM9 18L9 19L10 19L10 18ZM13 18L13 19L14 19L14 18ZM20 20L20 21L21 21L21 20ZM0 0L0 7L7 7L7 0ZM1 1L1 6L6 6L6 1ZM2 2L2 5L5 5L5 2ZM14 0L14 7L21 7L21 0ZM15 1L15 6L20 6L20 1ZM16 2L16 5L19 5L19 2ZM0 14L0 21L7 21L7 14ZM1 15L1 20L6 20L6 15ZM2 16L2 19L5 19L5 16Z" fill="#000000"/></g></g></svg>
