<?xml version="1.0" encoding="UTF-8"?>
<svg xmlns="http://www.w3.org/2000/svg" version="1.1" width="512" height="512" viewBox="0 0 512 512"><rect x="0" y="0" width="512" height="512" fill="#ffffff"/><g transform="scale(17.655)"><g transform="translate(0,0)"><path fill-rule="evenodd" d="M8 0L8 1L10 1L10 0ZM20 0L20 2L19 2L19 1L17 1L17 2L15 2L15 1L13 1L13 2L11 2L11 4L10 4L10 3L9 3L9 2L8 2L8 5L9 5L9 6L8 6L8 7L9 7L9 8L8 8L8 9L7 9L7 8L6 8L6 9L7 9L7 10L6 10L6 11L5 11L5 10L4 10L4 8L0 8L0 10L1 10L1 11L3 11L3 12L2 12L2 13L1 13L1 12L0 12L0 15L1 15L1 14L3 14L3 12L4 12L4 11L5 11L5 12L6 12L6 13L7 13L7 14L6 14L6 15L7 15L7 16L5 16L5 17L4 17L4 19L3 19L3 18L2 18L2 17L3 17L3 16L4 16L4 15L2 15L2 16L0 16L0 17L1 17L1 18L0 18L0 19L1 19L1 18L2 18L2 20L1 20L1 21L2 21L2 20L3 20L3 21L4 21L4 20L5 20L5 21L7 21L7 20L9 20L9 19L8 19L8 18L6 18L6 17L8 17L8 16L10 16L10 17L9 17L9 18L10 18L10 20L11 20L11 21L12 21L12 22L11 22L11 23L10 23L10 22L9 22L9 21L8 21L8 22L9 22L9 23L10 23L10 24L11 24L11 23L14 23L14 22L15 22L15 21L14 21L14 20L13 20L13 18L14 18L14 17L12 17L12 16L14 16L14 15L15 15L15 14L16 14L16 15L17 15L17 14L16 14L16 13L13 13L13 14L12 14L12 12L15 12L15 10L14 10L14 9L13 9L13 10L14 10L14 11L11 11L11 13L10 13L10 12L8 12L8 11L9 11L9 10L10 10L10 9L9 9L9 8L10 8L10 7L11 7L11 8L12 8L12 7L13 7L13 6L14 6L14 7L15 7L15 6L14 6L14 5L16 5L16 7L17 7L17 8L16 8L16 9L17 9L17 8L18 8L18 10L17 10L17 11L18 11L18 12L17 12L17 13L19 13L19 12L20 12L20 13L21 13L21 14L19 14L19 15L18 15L18 16L17 16L17 17L15 17L15 19L16 19L16 18L17 18L17 17L19 17L19 18L18 18L18 19L17 19L17 20L16 20L16 21L18 21L18 20L19 20L19 21L20 21L20 25L19 25L19 23L18 23L18 24L17 24L17 23L15 23L15 24L14 24L14 26L13 26L13 24L12 24L12 25L10 25L10 26L9 26L9 25L8 25L8 29L9 29L9 27L11 27L11 28L10 28L10 29L11 29L11 28L12 28L12 29L13 29L13 28L12 28L12 26L13 26L13 27L14 27L14 29L15 29L15 28L16 28L16 27L17 27L17 26L16 26L16 24L17 24L17 25L19 25L19 26L18 26L18 28L19 28L19 29L23 29L23 28L22 28L22 27L24 27L24 25L25 25L25 24L26 24L26 26L25 26L25 27L27 27L27 29L28 29L28 27L29 27L29 25L28 25L28 27L27 27L27 24L28 24L28 23L27 23L27 22L26 22L26 23L25 23L25 21L26 21L26 20L28 20L28 22L29 22L29 20L28 20L28 17L29 17L29 16L28 16L28 15L29 15L29 13L28 13L28 12L29 12L29 11L27 11L27 10L29 10L29 8L28 8L28 9L27 9L27 8L24 8L24 9L23 9L23 10L24 10L24 11L22 11L22 8L21 8L21 5L19 5L19 4L17 4L17 5L16 5L16 3L17 3L17 2L18 2L18 3L20 3L20 4L21 4L21 0ZM14 2L14 4L15 4L15 2ZM12 3L12 5L10 5L10 6L9 6L9 7L10 7L10 6L11 6L11 7L12 7L12 5L13 5L13 3ZM17 5L17 7L18 7L18 8L19 8L19 11L20 11L20 9L21 9L21 8L20 8L20 6L19 6L19 7L18 7L18 5ZM1 9L1 10L2 10L2 9ZM7 10L7 11L6 11L6 12L7 12L7 13L8 13L8 12L7 12L7 11L8 11L8 10ZM24 11L24 12L25 12L25 11ZM26 11L26 12L27 12L27 11ZM21 12L21 13L22 13L22 14L21 14L21 15L20 15L20 16L19 16L19 17L21 17L21 18L19 18L19 19L21 19L21 20L24 20L24 18L25 18L25 19L26 19L26 18L27 18L27 17L28 17L28 16L27 16L27 15L28 15L28 14L27 14L27 13L26 13L26 14L25 14L25 13L23 13L23 12ZM7 14L7 15L10 15L10 16L12 16L12 14ZM13 14L13 15L14 15L14 14ZM22 14L22 15L21 15L21 16L23 16L23 18L21 18L21 19L23 19L23 18L24 18L24 15L25 15L25 14ZM10 17L10 18L12 18L12 17ZM25 17L25 18L26 18L26 17ZM5 18L5 19L6 19L6 20L7 20L7 19L6 19L6 18ZM11 19L11 20L12 20L12 19ZM21 21L21 24L24 24L24 21ZM22 22L22 23L23 23L23 22ZM26 23L26 24L27 24L27 23ZM22 25L22 26L23 26L23 25ZM14 26L14 27L16 27L16 26ZM19 26L19 27L20 27L20 28L21 28L21 26ZM0 0L0 7L7 7L7 0ZM1 1L1 6L6 6L6 1ZM2 2L2 5L5 5L5 2ZM22 0L22 7L29 7L29 0ZM23 1L23 6L28 6L28 1ZM24 2L24 5L27 5L27 2ZM0 22L0 29L7 29L7 22ZM1 23L1 28L6 28L6 23ZM2 24L2 27L5 27L5 24Z" fill="#000000"/></g></g></svg>
