<?xml version="1.0" encoding="UTF-8"?>
<svg xmlns="http://www.w3.org/2000/svg" version="1.1" width="512" height="512" viewBox="0 0 512 512"><rect x="0" y="0" width="512" height="512" fill="#ffffff"/><g transform="scale(17.655)"><g transform="translate(0,0)"><path fill-rule="evenodd" d="M8 0L8 1L10 1L10 0ZM20 0L20 2L19 2L19 1L17 1L17 2L15 2L15 1L13 1L13 2L11 2L11 4L10 4L10 3L9 3L9 2L8 2L8 5L9 5L9 6L8 6L8 7L9 7L9 8L8 8L8 9L7 9L7 8L6 8L6 9L7 9L7 10L5 10L5 9L4 9L4 8L0 8L0 9L3 9L3 10L0 10L0 12L1 12L1 13L2 13L2 12L1 12L1 11L3 11L3 10L5 10L5 11L4 11L4 12L5 12L5 11L7 11L7 12L6 12L6 13L4 13L4 14L3 14L3 15L4 15L4 14L5 14L5 16L2 16L2 15L1 15L1 14L0 14L0 15L1 15L1 17L3 17L3 18L4 18L4 19L5 19L5 20L6 20L6 21L7 21L7 20L8 20L8 22L9 22L9 25L8 25L8 29L9 29L9 28L12 28L12 29L13 29L13 28L12 28L12 26L13 26L13 27L14 27L14 29L15 29L15 28L16 28L16 27L17 27L17 26L16 26L16 24L17 24L17 25L19 25L19 26L18 26L18 28L19 28L19 29L23 29L23 28L22 28L22 27L24 27L24 25L25 25L25 24L26 24L26 26L25 26L25 27L27 27L27 29L28 29L28 27L29 27L29 25L28 25L28 27L27 27L27 24L28 24L28 23L27 23L27 22L26 22L26 23L25 23L25 21L26 21L26 20L28 20L28 22L29 22L29 20L28 20L28 17L29 17L29 16L28 16L28 15L29 15L29 13L27 13L27 12L26 12L26 11L27 11L27 10L29 10L29 8L28 8L28 9L27 9L27 8L24 8L24 9L23 9L23 10L24 10L24 11L22 11L22 8L21 8L21 5L19 5L19 4L17 4L17 5L16 5L16 3L17 3L17 2L18 2L18 3L20 3L20 4L21 4L21 0ZM14 2L14 4L15 4L15 2ZM12 3L12 5L10 5L10 6L9 6L9 7L10 7L10 8L9 8L9 9L8 9L8 10L9 10L9 12L10 12L10 13L9 13L9 14L7 14L7 13L6 13L6 14L7 14L7 15L6 15L6 16L5 16L5 17L6 17L6 18L5 18L5 19L6 19L6 20L7 20L7 19L6 19L6 18L8 18L8 20L9 20L9 22L10 22L10 24L11 24L11 25L10 25L10 26L9 26L9 27L10 27L10 26L11 26L11 25L12 25L12 24L13 24L13 26L14 26L14 27L16 27L16 26L14 26L14 24L15 24L15 23L17 23L17 24L19 24L19 25L20 25L20 21L19 21L19 20L18 20L18 21L16 21L16 20L17 20L17 19L18 19L18 18L19 18L19 19L21 19L21 20L24 20L24 18L25 18L25 19L26 19L26 18L27 18L27 17L28 17L28 16L27 16L27 15L28 15L28 14L27 14L27 13L26 13L26 14L25 14L25 13L23 13L23 12L21 12L21 13L20 13L20 12L19 12L19 13L17 13L17 12L18 12L18 11L17 11L17 10L18 10L18 8L19 8L19 11L20 11L20 9L21 9L21 8L20 8L20 6L19 6L19 7L18 7L18 5L17 5L17 7L16 7L16 5L14 5L14 6L13 6L13 7L12 7L12 5L13 5L13 3ZM10 6L10 7L11 7L11 8L12 8L12 7L11 7L11 6ZM14 6L14 7L15 7L15 6ZM17 7L17 8L16 8L16 9L17 9L17 8L18 8L18 7ZM9 9L9 10L10 10L10 9ZM13 9L13 10L14 10L14 11L11 11L11 13L10 13L10 14L9 14L9 15L8 15L8 17L9 17L9 18L10 18L10 21L12 21L12 22L11 22L11 23L14 23L14 22L15 22L15 21L14 21L14 20L13 20L13 18L14 18L14 17L12 17L12 16L14 16L14 15L15 15L15 14L16 14L16 15L17 15L17 14L16 14L16 13L13 13L13 14L12 14L12 12L15 12L15 10L14 10L14 9ZM24 11L24 12L25 12L25 11ZM28 11L28 12L29 12L29 11ZM21 13L21 14L19 14L19 15L18 15L18 16L17 16L17 17L15 17L15 19L16 19L16 18L17 18L17 17L19 17L19 18L21 18L21 19L23 19L23 18L24 18L24 15L25 15L25 14L22 14L22 13ZM11 14L11 16L12 16L12 14ZM13 14L13 15L14 15L14 14ZM21 14L21 15L20 15L20 16L19 16L19 17L21 17L21 18L23 18L23 16L21 16L21 15L22 15L22 14ZM9 15L9 17L10 17L10 15ZM6 16L6 17L7 17L7 16ZM11 17L11 18L12 18L12 17ZM25 17L25 18L26 18L26 17ZM0 18L0 19L1 19L1 18ZM2 19L2 20L1 20L1 21L4 21L4 20L3 20L3 19ZM11 19L11 20L12 20L12 19ZM21 21L21 24L24 24L24 21ZM18 22L18 23L19 23L19 22ZM22 22L22 23L23 23L23 22ZM26 23L26 24L27 24L27 23ZM22 25L22 26L23 26L23 25ZM19 26L19 27L20 27L20 28L21 28L21 26ZM0 0L0 7L7 7L7 0ZM1 1L1 6L6 6L6 1ZM2 2L2 5L5 5L5 2ZM22 0L22 7L29 7L29 0ZM23 1L23 6L28 6L28 1ZM24 2L24 5L27 5L27 2ZM0 22L0 29L7 29L7 22ZM1 23L1 28L6 28L6 23ZM2 24L2 27L5 27L5 24Z" fill="#000000"/></g></g></svg>
