<?xml version="1.0" encoding="UTF-8"?>
<svg xmlns="http://www.w3.org/2000/svg" version="1.1" width="512" height="512" viewBox="0 0 512 512"><rect x="0" y="0" width="512" height="512" fill="#ffffff"/><g transform="scale(17.655)"><g transform="translate(0,0)"><path fill-rule="evenodd" d="M9 0L9 1L8 1L8 2L9 2L9 3L8 3L8 4L10 4L10 7L11 7L11 4L12 4L12 5L14 5L14 3L13 3L13 4L12 4L12 2L14 2L14 1L11 1L11 2L10 2L10 0ZM20 0L20 1L21 1L21 0ZM15 1L15 2L16 2L16 1ZM20 2L20 7L21 7L21 2ZM10 3L10 4L11 4L11 3ZM15 3L15 4L16 4L16 3ZM8 5L8 7L9 7L9 5ZM15 5L15 6L14 6L14 8L13 8L13 6L12 6L12 9L13 9L13 10L11 10L11 11L10 11L10 9L11 9L11 8L6 8L6 9L8 9L8 10L6 10L6 11L5 11L5 8L0 8L0 10L1 10L1 12L0 12L0 13L1 13L1 14L0 14L0 15L2 15L2 13L4 13L4 11L5 11L5 14L4 14L4 15L3 15L3 16L0 16L0 21L1 21L1 17L2 17L2 19L3 19L3 16L4 16L4 17L5 17L5 16L6 16L6 17L7 17L7 18L4 18L4 20L2 20L2 21L4 21L4 20L5 20L5 19L7 19L7 18L8 18L8 23L11 23L11 21L12 21L12 22L13 22L13 23L12 23L12 25L13 25L13 24L14 24L14 25L16 25L16 24L14 24L14 23L16 23L16 22L15 22L15 21L16 21L16 18L15 18L15 19L14 19L14 20L15 20L15 21L12 21L12 19L13 19L13 18L11 18L11 13L12 13L12 14L13 14L13 15L12 15L12 17L13 17L13 16L14 16L14 17L16 17L16 16L14 16L14 15L16 15L16 14L14 14L14 13L12 13L12 11L13 11L13 10L14 10L14 8L15 8L15 9L16 9L16 7L17 7L17 6L16 6L16 5ZM15 6L15 7L16 7L16 6ZM18 6L18 8L19 8L19 9L18 9L18 10L19 10L19 9L20 9L20 10L22 10L22 8L21 8L21 9L20 9L20 8L19 8L19 6ZM23 8L23 15L22 15L22 14L21 14L21 11L20 11L20 15L19 15L19 12L17 12L17 11L16 11L16 10L15 10L15 11L14 11L14 12L17 12L17 14L18 14L18 16L20 16L20 18L21 18L21 20L20 20L20 19L19 19L19 17L18 17L18 19L19 19L19 20L17 20L17 22L18 22L18 24L17 24L17 26L19 26L19 27L18 27L18 28L17 28L17 29L20 29L20 25L24 25L24 26L23 26L23 27L25 27L25 20L26 20L26 19L28 19L28 18L29 18L29 16L28 16L28 14L29 14L29 13L28 13L28 14L27 14L27 12L29 12L29 11L28 11L28 10L29 10L29 9L28 9L28 8L27 8L27 9L26 9L26 8L25 8L25 9L24 9L24 8ZM2 10L2 12L3 12L3 11L4 11L4 10ZM24 10L24 11L25 11L25 12L27 12L27 10L26 10L26 11L25 11L25 10ZM6 11L6 12L7 12L7 11ZM8 12L8 15L10 15L10 14L9 14L9 12ZM10 12L10 13L11 13L11 12ZM6 13L6 14L5 14L5 15L4 15L4 16L5 16L5 15L6 15L6 16L7 16L7 15L6 15L6 14L7 14L7 13ZM24 14L24 16L22 16L22 17L24 17L24 16L25 16L25 19L24 19L24 18L23 18L23 19L22 19L22 20L23 20L23 19L24 19L24 20L25 20L25 19L26 19L26 18L28 18L28 17L26 17L26 16L27 16L27 14L26 14L26 15L25 15L25 14ZM20 15L20 16L21 16L21 15ZM8 16L8 17L9 17L9 16ZM9 18L9 20L10 20L10 19L11 19L11 18ZM6 20L6 21L7 21L7 20ZM19 20L19 21L18 21L18 22L19 22L19 23L20 23L20 20ZM27 20L27 21L28 21L28 22L27 22L27 23L28 23L28 24L29 24L29 23L28 23L28 22L29 22L29 21L28 21L28 20ZM21 21L21 24L24 24L24 21ZM22 22L22 23L23 23L23 22ZM8 24L8 29L9 29L9 27L10 27L10 28L11 28L11 29L12 29L12 27L13 27L13 26L11 26L11 27L10 27L10 26L9 26L9 24ZM10 24L10 25L11 25L11 24ZM19 24L19 25L20 25L20 24ZM26 24L26 25L27 25L27 26L26 26L26 27L27 27L27 28L26 28L26 29L27 29L27 28L28 28L28 26L29 26L29 25L27 25L27 24ZM15 26L15 27L14 27L14 28L15 28L15 29L16 29L16 26ZM21 27L21 28L22 28L22 29L25 29L25 28L22 28L22 27ZM0 0L0 7L7 7L7 0ZM1 1L1 6L6 6L6 1ZM2 2L2 5L5 5L5 2ZM22 0L22 7L29 7L29 0ZM23 1L23 6L28 6L28 1ZM24 2L24 5L27 5L27 2ZM0 22L0 29L7 29L7 22ZM1 23L1 28L6 28L6 23ZM2 24L2 27L5 27L5 24Z" fill="#000000"/></g></g></svg>
