<?xml version="1.0" encoding="UTF-8"?>
<svg xmlns="http://www.w3.org/2000/svg" version="1.1" width="512" height="512" viewBox="0 0 512 512"><rect x="0" y="0" width="512" height="512" fill="#ffffff"/><g transform="scale(17.655)"><g transform="translate(0,0)"><path fill-rule="evenodd" d="M8 0L8 1L9 1L9 2L8 2L8 5L9 5L9 4L11 4L11 5L10 5L10 10L9 10L9 11L8 11L8 10L6 10L6 11L7 11L7 12L4 12L4 13L7 13L7 14L4 14L4 15L3 15L3 16L2 16L2 17L5 17L5 15L7 15L7 14L10 14L10 13L11 13L11 15L8 15L8 16L6 16L6 17L7 17L7 18L6 18L6 19L5 19L5 18L4 18L4 19L3 19L3 21L4 21L4 19L5 19L5 20L6 20L6 21L7 21L7 20L6 20L6 19L8 19L8 20L10 20L10 19L11 19L11 20L12 20L12 19L11 19L11 18L10 18L10 17L11 17L11 16L12 16L12 17L13 17L13 16L12 16L12 14L13 14L13 15L14 15L14 17L15 17L15 18L13 18L13 21L15 21L15 20L16 20L16 21L18 21L18 20L19 20L19 21L20 21L20 25L19 25L19 23L18 23L18 22L17 22L17 23L16 23L16 24L15 24L15 22L14 22L14 23L10 23L10 22L11 22L11 21L8 21L8 22L9 22L9 23L10 23L10 24L9 24L9 25L8 25L8 29L9 29L9 25L10 25L10 28L11 28L11 29L12 29L12 28L14 28L14 27L15 27L15 29L16 29L16 28L17 28L17 26L18 26L18 27L19 27L19 29L23 29L23 28L22 28L22 27L24 27L24 25L25 25L25 24L26 24L26 26L25 26L25 27L27 27L27 29L28 29L28 27L29 27L29 23L28 23L28 24L26 24L26 23L27 23L27 22L26 22L26 23L25 23L25 21L26 21L26 20L28 20L28 22L29 22L29 20L28 20L28 17L29 17L29 16L28 16L28 17L27 17L27 18L26 18L26 17L25 17L25 18L24 18L24 15L25 15L25 14L26 14L26 13L27 13L27 14L28 14L28 15L29 15L29 13L28 13L28 11L27 11L27 10L29 10L29 8L28 8L28 9L27 9L27 8L24 8L24 9L23 9L23 10L24 10L24 11L22 11L22 8L21 8L21 5L19 5L19 4L17 4L17 5L16 5L16 3L17 3L17 2L18 2L18 3L20 3L20 4L21 4L21 0L20 0L20 2L19 2L19 1L17 1L17 2L16 2L16 3L15 3L15 4L14 4L14 2L15 2L15 1L13 1L13 0L12 0L12 1L11 1L11 0L10 0L10 1L9 1L9 0ZM11 2L11 4L12 4L12 3L13 3L13 2ZM13 4L13 5L12 5L12 6L11 6L11 8L12 8L12 6L13 6L13 9L14 9L14 10L13 10L13 11L11 11L11 13L12 13L12 12L13 12L13 11L14 11L14 10L15 10L15 11L17 11L17 12L16 12L16 14L14 14L14 15L16 15L16 16L15 16L15 17L17 17L17 18L16 18L16 20L17 20L17 19L18 19L18 18L19 18L19 19L21 19L21 20L24 20L24 18L23 18L23 16L21 16L21 15L22 15L22 14L25 14L25 13L23 13L23 12L21 12L21 13L20 13L20 12L19 12L19 13L17 13L17 12L18 12L18 11L17 11L17 10L18 10L18 8L19 8L19 11L20 11L20 9L21 9L21 8L20 8L20 6L19 6L19 7L18 7L18 5L17 5L17 7L18 7L18 8L17 8L17 9L15 9L15 8L16 8L16 5L14 5L14 4ZM8 6L8 7L9 7L9 6ZM14 6L14 8L15 8L15 6ZM0 8L0 9L1 9L1 10L0 10L0 12L1 12L1 13L0 13L0 17L1 17L1 14L3 14L3 13L2 13L2 12L3 12L3 11L5 11L5 10L3 10L3 11L1 11L1 10L2 10L2 9L4 9L4 8ZM6 8L6 9L7 9L7 8ZM8 8L8 9L9 9L9 8ZM11 9L11 10L12 10L12 9ZM24 11L24 12L25 12L25 11ZM26 11L26 12L27 12L27 11ZM8 12L8 13L9 13L9 12ZM14 12L14 13L15 13L15 12ZM21 13L21 14L19 14L19 15L18 15L18 16L17 16L17 17L19 17L19 18L21 18L21 19L23 19L23 18L21 18L21 17L19 17L19 16L20 16L20 15L21 15L21 14L22 14L22 13ZM16 14L16 15L17 15L17 14ZM8 16L8 17L10 17L10 16ZM0 18L0 19L1 19L1 18ZM8 18L8 19L9 19L9 18ZM25 18L25 19L26 19L26 18ZM1 20L1 21L2 21L2 20ZM21 21L21 24L24 24L24 21ZM22 22L22 23L23 23L23 22ZM17 23L17 24L16 24L16 26L15 26L15 24L12 24L12 26L11 26L11 28L12 28L12 26L13 26L13 27L14 27L14 26L15 26L15 27L16 27L16 26L17 26L17 24L18 24L18 23ZM13 25L13 26L14 26L14 25ZM22 25L22 26L23 26L23 25ZM27 25L27 27L28 27L28 25ZM19 26L19 27L20 27L20 28L21 28L21 26ZM0 0L0 7L7 7L7 0ZM1 1L1 6L6 6L6 1ZM2 2L2 5L5 5L5 2ZM22 0L22 7L29 7L29 0ZM23 1L23 6L28 6L28 1ZM24 2L24 5L27 5L27 2ZM0 22L0 29L7 29L7 22ZM1 23L1 28L6 28L6 23ZM2 24L2 27L5 27L5 24Z" fill="#000000"/></g></g></svg>
