<?xml version="1.0" encoding="UTF-8"?>
<svg xmlns="http://www.w3.org/2000/svg" version="1.1" width="512" height="512" viewBox="0 0 512 512"><rect x="0" y="0" width="512" height="512" fill="#ffffff"/><g transform="scale(17.655)"><g transform="translate(0,0)"><path fill-rule="evenodd" d="M8 0L8 4L10 4L10 3L11 3L11 4L12 4L12 2L11 2L11 0ZM12 0L12 1L14 1L14 2L15 2L15 4L14 4L14 3L13 3L13 5L11 5L11 6L10 6L10 7L9 7L9 5L8 5L8 7L9 7L9 8L10 8L10 7L11 7L11 6L12 6L12 8L11 8L11 9L9 9L9 10L11 10L11 11L10 11L10 13L9 13L9 11L7 11L7 10L6 10L6 9L7 9L7 8L4 8L4 9L2 9L2 8L0 8L0 9L2 9L2 11L1 11L1 13L3 13L3 12L2 12L2 11L5 11L5 13L4 13L4 14L5 14L5 13L8 13L8 14L6 14L6 15L7 15L7 16L6 16L6 17L5 17L5 16L4 16L4 15L2 15L2 14L0 14L0 18L1 18L1 15L2 15L2 18L3 18L3 19L2 19L2 20L0 20L0 21L3 21L3 19L4 19L4 21L8 21L8 22L9 22L9 23L8 23L8 25L9 25L9 26L10 26L10 28L9 28L9 27L8 27L8 29L10 29L10 28L12 28L12 29L14 29L14 27L15 27L15 29L16 29L16 27L17 27L17 29L19 29L19 28L20 28L20 29L26 29L26 28L25 28L25 27L23 27L23 26L22 26L22 25L24 25L24 26L26 26L26 27L27 27L27 29L28 29L28 28L29 28L29 21L27 21L27 20L28 20L28 19L29 19L29 17L26 17L26 16L25 16L25 15L26 15L26 14L25 14L25 12L23 12L23 10L24 10L24 11L26 11L26 10L25 10L25 9L28 9L28 10L27 10L27 15L28 15L28 16L29 16L29 13L28 13L28 11L29 11L29 8L25 8L25 9L24 9L24 8L23 8L23 10L22 10L22 12L21 12L21 11L20 11L20 12L19 12L19 10L20 10L20 9L21 9L21 8L20 8L20 9L18 9L18 10L16 10L16 7L17 7L17 8L18 8L18 7L19 7L19 6L20 6L20 7L21 7L21 6L20 6L20 4L21 4L21 1L20 1L20 0L19 0L19 2L15 2L15 1L16 1L16 0ZM9 2L9 3L10 3L10 2ZM19 2L19 4L16 4L16 5L15 5L15 7L14 7L14 5L13 5L13 8L12 8L12 9L11 9L11 10L12 10L12 9L13 9L13 11L12 11L12 12L11 12L11 13L10 13L10 14L8 14L8 15L10 15L10 14L11 14L11 16L12 16L12 17L10 17L10 16L7 16L7 17L6 17L6 18L8 18L8 20L10 20L10 21L11 21L11 22L10 22L10 23L9 23L9 24L10 24L10 25L11 25L11 26L12 26L12 25L13 25L13 26L15 26L15 25L16 25L16 26L17 26L17 24L15 24L15 25L13 25L13 24L14 24L14 23L15 23L15 22L13 22L13 21L12 21L12 20L13 20L13 19L12 19L12 20L11 20L11 19L9 19L9 17L10 17L10 18L12 18L12 17L13 17L13 18L14 18L14 17L13 17L13 16L14 16L14 15L15 15L15 14L14 14L14 11L15 11L15 13L16 13L16 14L17 14L17 12L16 12L16 11L15 11L15 10L14 10L14 8L15 8L15 7L16 7L16 6L17 6L17 7L18 7L18 6L19 6L19 4L20 4L20 2ZM4 9L4 10L5 10L5 11L6 11L6 12L7 12L7 11L6 11L6 10L5 10L5 9ZM12 12L12 13L13 13L13 12ZM20 12L20 14L18 14L18 16L15 16L15 17L16 17L16 18L18 18L18 19L20 19L20 20L21 20L21 18L22 18L22 19L23 19L23 20L24 20L24 19L26 19L26 20L27 20L27 19L26 19L26 18L24 18L24 19L23 19L23 18L22 18L22 17L24 17L24 14L23 14L23 12L22 12L22 14L23 14L23 15L22 15L22 16L21 16L21 15L20 15L20 14L21 14L21 12ZM12 15L12 16L13 16L13 15ZM19 15L19 17L18 17L18 18L20 18L20 15ZM4 17L4 18L5 18L5 17ZM5 19L5 20L7 20L7 19ZM14 19L14 21L16 21L16 22L17 22L17 23L20 23L20 22L19 22L19 21L17 21L17 20L16 20L16 19ZM21 21L21 24L24 24L24 21ZM22 22L22 23L23 23L23 22ZM25 22L25 24L26 24L26 25L27 25L27 26L28 26L28 24L27 24L27 22ZM12 23L12 24L11 24L11 25L12 25L12 24L13 24L13 23ZM18 25L18 28L19 28L19 26L20 26L20 28L21 28L21 27L22 27L22 26L20 26L20 25ZM12 27L12 28L13 28L13 27ZM0 0L0 7L7 7L7 0ZM1 1L1 6L6 6L6 1ZM2 2L2 5L5 5L5 2ZM22 0L22 7L29 7L29 0ZM23 1L23 6L28 6L28 1ZM24 2L24 5L27 5L27 2ZM0 22L0 29L7 29L7 22ZM1 23L1 28L6 28L6 23ZM2 24L2 27L5 27L5 24Z" fill="#000000"/></g></g></svg>
