<?xml version="1.0" encoding="UTF-8"?>
<svg xmlns="http://www.w3.org/2000/svg" version="1.1" width="512" height="512" viewBox="0 0 512 512"><rect x="0" y="0" width="512" height="512" fill="#ffffff"/><g transform="scale(17.655)"><g transform="translate(0,0)"><path fill-rule="evenodd" d="M9 0L9 1L8 1L8 3L9 3L9 4L8 4L8 8L6 8L6 9L8 9L8 11L7 11L7 10L4 10L4 11L3 11L3 9L4 9L4 8L3 8L3 9L2 9L2 8L0 8L0 9L2 9L2 10L0 10L0 13L2 13L2 14L3 14L3 13L4 13L4 14L5 14L5 16L6 16L6 17L7 17L7 18L6 18L6 19L5 19L5 20L4 20L4 21L7 21L7 20L6 20L6 19L7 19L7 18L10 18L10 21L8 21L8 23L9 23L9 24L10 24L10 25L11 25L11 26L9 26L9 25L8 25L8 26L9 26L9 27L8 27L8 29L9 29L9 28L10 28L10 29L11 29L11 28L12 28L12 29L14 29L14 28L12 28L12 24L14 24L14 25L13 25L13 27L15 27L15 29L16 29L16 28L17 28L17 29L19 29L19 28L18 28L18 27L17 27L17 26L19 26L19 27L20 27L20 25L22 25L22 26L21 26L21 28L20 28L20 29L26 29L26 27L27 27L27 29L28 29L28 27L29 27L29 26L28 26L28 25L27 25L27 26L26 26L26 27L25 27L25 26L24 26L24 25L25 25L25 24L28 24L28 23L27 23L27 22L26 22L26 21L25 21L25 20L26 20L26 19L25 19L25 18L27 18L27 17L28 17L28 19L27 19L27 20L28 20L28 22L29 22L29 20L28 20L28 19L29 19L29 17L28 17L28 15L29 15L29 14L28 14L28 15L27 15L27 17L26 17L26 14L27 14L27 13L29 13L29 12L28 12L28 11L27 11L27 10L29 10L29 9L28 9L28 8L26 8L26 11L25 11L25 12L24 12L24 10L23 10L23 12L21 12L21 13L20 13L20 15L21 15L21 16L23 16L23 13L25 13L25 15L24 15L24 17L21 17L21 18L20 18L20 16L19 16L19 18L18 18L18 19L17 19L17 18L16 18L16 21L17 21L17 23L18 23L18 22L19 22L19 23L20 23L20 25L19 25L19 24L16 24L16 23L15 23L15 22L14 22L14 21L15 21L15 20L14 20L14 18L15 18L15 16L16 16L16 15L17 15L17 16L18 16L18 15L19 15L19 14L17 14L17 13L19 13L19 12L20 12L20 11L22 11L22 9L25 9L25 8L22 8L22 9L20 9L20 8L19 8L19 11L18 11L18 12L16 12L16 15L13 15L13 14L14 14L14 13L15 13L15 12L14 12L14 11L15 11L15 10L13 10L13 12L12 12L12 13L10 13L10 14L9 14L9 11L11 11L11 10L12 10L12 9L11 9L11 8L10 8L10 7L11 7L11 6L12 6L12 8L13 8L13 9L14 9L14 8L13 8L13 6L12 6L12 5L11 5L11 6L10 6L10 5L9 5L9 4L12 4L12 3L13 3L13 2L14 2L14 1L15 1L15 2L16 2L16 3L15 3L15 4L13 4L13 5L14 5L14 7L15 7L15 9L17 9L17 10L18 10L18 7L19 7L19 6L20 6L20 7L21 7L21 6L20 6L20 4L21 4L21 2L20 2L20 3L18 3L18 2L19 2L19 1L17 1L17 0L14 0L14 1L13 1L13 0L12 0L12 1L11 1L11 2L9 2L9 1L10 1L10 0ZM16 3L16 6L15 6L15 7L16 7L16 8L17 8L17 7L18 7L18 5L19 5L19 4L17 4L17 3ZM9 6L9 7L10 7L10 6ZM16 6L16 7L17 7L17 6ZM8 8L8 9L9 9L9 10L10 10L10 8ZM4 11L4 13L6 13L6 14L8 14L8 15L6 15L6 16L7 16L7 17L8 17L8 16L9 16L9 17L10 17L10 18L11 18L11 19L12 19L12 20L13 20L13 21L14 21L14 20L13 20L13 18L14 18L14 17L13 17L13 16L12 16L12 14L11 14L11 15L9 15L9 14L8 14L8 12L7 12L7 11L6 11L6 12L5 12L5 11ZM2 12L2 13L3 13L3 12ZM6 12L6 13L7 13L7 12ZM26 12L26 13L27 13L27 12ZM21 13L21 15L22 15L22 13ZM0 15L0 16L1 16L1 17L2 17L2 16L3 16L3 15ZM10 16L10 17L12 17L12 16ZM4 17L4 18L2 18L2 21L3 21L3 19L4 19L4 18L5 18L5 17ZM24 17L24 18L21 18L21 19L20 19L20 18L19 18L19 19L20 19L20 20L19 20L19 21L20 21L20 20L21 20L21 19L23 19L23 20L24 20L24 18L25 18L25 17ZM0 18L0 19L1 19L1 18ZM8 19L8 20L9 20L9 19ZM0 20L0 21L1 21L1 20ZM17 20L17 21L18 21L18 20ZM10 21L10 22L9 22L9 23L10 23L10 24L11 24L11 23L10 23L10 22L11 22L11 21ZM21 21L21 24L24 24L24 21ZM22 22L22 23L23 23L23 22ZM14 23L14 24L15 24L15 27L16 27L16 24L15 24L15 23ZM23 26L23 27L22 27L22 28L23 28L23 27L24 27L24 26ZM27 26L27 27L28 27L28 26ZM0 0L0 7L7 7L7 0ZM1 1L1 6L6 6L6 1ZM2 2L2 5L5 5L5 2ZM22 0L22 7L29 7L29 0ZM23 1L23 6L28 6L28 1ZM24 2L24 5L27 5L27 2ZM0 22L0 29L7 29L7 22ZM1 23L1 28L6 28L6 23ZM2 24L2 27L5 27L5 24Z" fill="#000000"/></g></g></svg>
