<?xml version="1.0" encoding="UTF-8"?>
<svg xmlns="http://www.w3.org/2000/svg" version="1.1" width="512" height="512" viewBox="0 0 512 512"><rect x="0" y="0" width="512" height="512" fill="#ffffff"/><g transform="scale(17.655)"><g transform="translate(0,0)"><path fill-rule="evenodd" d="M9 0L9 1L10 1L10 2L8 2L8 3L9 3L9 4L10 4L10 5L9 5L9 6L8 6L8 8L4 8L4 9L3 9L3 8L0 8L0 9L3 9L3 10L5 10L5 11L8 11L8 9L9 9L9 8L10 8L10 10L9 10L9 11L10 11L10 10L12 10L12 8L14 8L14 9L15 9L15 6L16 6L16 7L17 7L17 8L16 8L16 9L19 9L19 10L18 10L18 11L17 11L17 10L16 10L16 11L15 11L15 12L16 12L16 13L17 13L17 14L16 14L16 15L15 15L15 14L14 14L14 13L13 13L13 12L12 12L12 11L11 11L11 12L12 12L12 13L11 13L11 14L10 14L10 13L9 13L9 12L5 12L5 14L6 14L6 15L4 15L4 12L3 12L3 11L2 11L2 10L1 10L1 11L0 11L0 12L1 12L1 13L0 13L0 14L1 14L1 15L0 15L0 16L1 16L1 18L0 18L0 19L1 19L1 20L0 20L0 21L1 21L1 20L2 20L2 21L4 21L4 20L3 20L3 19L1 19L1 18L4 18L4 19L5 19L5 21L7 21L7 20L6 20L6 19L8 19L8 20L9 20L9 21L8 21L8 25L9 25L9 26L8 26L8 29L9 29L9 27L10 27L10 26L12 26L12 24L14 24L14 26L13 26L13 27L14 27L14 26L15 26L15 24L16 24L16 25L17 25L17 26L16 26L16 27L17 27L17 28L16 28L16 29L24 29L24 27L25 27L25 26L24 26L24 25L25 25L25 24L26 24L26 23L25 23L25 22L26 22L26 21L25 21L25 20L26 20L26 19L27 19L27 20L28 20L28 23L27 23L27 26L28 26L28 27L27 27L27 28L26 28L26 29L29 29L29 28L28 28L28 27L29 27L29 16L28 16L28 15L29 15L29 13L28 13L28 12L27 12L27 14L28 14L28 15L27 15L27 16L26 16L26 17L25 17L25 16L22 16L22 15L21 15L21 14L23 14L23 15L24 15L24 14L23 14L23 11L25 11L25 12L24 12L24 13L25 13L25 14L26 14L26 13L25 13L25 12L26 12L26 11L27 11L27 8L26 8L26 10L22 10L22 11L21 11L21 12L20 12L20 11L19 11L19 10L21 10L21 9L23 9L23 8L21 8L21 6L20 6L20 5L19 5L19 4L21 4L21 3L19 3L19 2L21 2L21 1L17 1L17 0L12 0L12 1L10 1L10 0ZM14 1L14 2L13 2L13 3L12 3L12 2L11 2L11 3L12 3L12 4L11 4L11 5L10 5L10 6L9 6L9 7L10 7L10 6L11 6L11 8L12 8L12 6L13 6L13 7L14 7L14 6L15 6L15 5L14 5L14 6L13 6L13 4L15 4L15 1ZM16 1L16 2L17 2L17 3L16 3L16 4L17 4L17 5L16 5L16 6L17 6L17 7L18 7L18 6L17 6L17 5L18 5L18 4L17 4L17 3L18 3L18 2L17 2L17 1ZM19 6L19 7L20 7L20 6ZM19 8L19 9L21 9L21 8ZM6 9L6 10L7 10L7 9ZM28 9L28 11L29 11L29 9ZM13 10L13 11L14 11L14 10ZM16 11L16 12L17 12L17 13L18 13L18 14L17 14L17 15L18 15L18 14L19 14L19 15L20 15L20 14L19 14L19 11L18 11L18 12L17 12L17 11ZM2 12L2 13L1 13L1 14L2 14L2 16L4 16L4 15L3 15L3 14L2 14L2 13L3 13L3 12ZM21 12L21 13L22 13L22 12ZM6 13L6 14L7 14L7 15L6 15L6 16L7 16L7 17L6 17L6 18L5 18L5 19L6 19L6 18L8 18L8 19L9 19L9 20L10 20L10 21L12 21L12 20L13 20L13 21L14 21L14 22L13 22L13 23L14 23L14 22L15 22L15 23L16 23L16 24L17 24L17 23L18 23L18 24L19 24L19 25L18 25L18 26L17 26L17 27L18 27L18 28L19 28L19 27L20 27L20 28L23 28L23 27L20 27L20 26L19 26L19 25L20 25L20 20L22 20L22 18L24 18L24 19L23 19L23 20L24 20L24 19L26 19L26 18L27 18L27 19L28 19L28 17L26 17L26 18L25 18L25 17L21 17L21 16L19 16L19 17L21 17L21 18L19 18L19 19L18 19L18 17L15 17L15 18L14 18L14 16L12 16L12 15L11 15L11 16L12 16L12 18L10 18L10 17L9 17L9 16L10 16L10 14L9 14L9 16L8 16L8 13ZM13 14L13 15L14 15L14 14ZM9 18L9 19L10 19L10 20L12 20L12 19L10 19L10 18ZM13 18L13 19L14 19L14 18ZM16 18L16 19L17 19L17 20L16 20L16 21L19 21L19 20L18 20L18 19L17 19L17 18ZM21 21L21 24L24 24L24 21ZM9 22L9 25L11 25L11 24L12 24L12 23L11 23L11 24L10 24L10 22ZM16 22L16 23L17 23L17 22ZM22 22L22 23L23 23L23 22ZM21 25L21 26L23 26L23 25ZM18 26L18 27L19 27L19 26ZM11 27L11 28L12 28L12 29L13 29L13 28L12 28L12 27ZM0 0L0 7L7 7L7 0ZM1 1L1 6L6 6L6 1ZM2 2L2 5L5 5L5 2ZM22 0L22 7L29 7L29 0ZM23 1L23 6L28 6L28 1ZM24 2L24 5L27 5L27 2ZM0 22L0 29L7 29L7 22ZM1 23L1 28L6 28L6 23ZM2 24L2 27L5 27L5 24Z" fill="#000000"/></g></g></svg>
