<?xml version="1.0" encoding="UTF-8"?>
<svg xmlns="http://www.w3.org/2000/svg" version="1.1" width="512" height="512" viewBox="0 0 512 512"><rect x="0" y="0" width="512" height="512" fill="#ffffff"/><g transform="scale(17.655)"><g transform="translate(0,0)"><path fill-rule="evenodd" d="M8 0L8 1L11 1L11 3L10 3L10 2L9 2L9 3L10 3L10 5L9 5L9 6L8 6L8 8L9 8L9 9L10 9L10 10L8 10L8 9L7 9L7 8L6 8L6 9L5 9L5 8L3 8L3 9L2 9L2 8L0 8L0 10L1 10L1 11L2 11L2 12L1 12L1 13L2 13L2 17L0 17L0 21L2 21L2 20L3 20L3 21L4 21L4 20L5 20L5 21L8 21L8 22L9 22L9 23L10 23L10 25L9 25L9 24L8 24L8 26L9 26L9 27L8 27L8 29L9 29L9 28L10 28L10 29L11 29L11 28L12 28L12 27L14 27L14 26L15 26L15 28L14 28L14 29L17 29L17 28L16 28L16 25L17 25L17 24L18 24L18 25L20 25L20 26L22 26L22 29L23 29L23 27L26 27L26 28L27 28L27 27L28 27L28 28L29 28L29 25L28 25L28 24L29 24L29 23L28 23L28 21L29 21L29 18L28 18L28 17L29 17L29 11L28 11L28 10L26 10L26 9L23 9L23 8L22 8L22 10L25 10L25 11L24 11L24 13L23 13L23 11L21 11L21 10L20 10L20 12L18 12L18 10L19 10L19 9L18 9L18 10L17 10L17 8L16 8L16 7L17 7L17 6L18 6L18 8L21 8L21 5L20 5L20 7L19 7L19 6L18 6L18 4L17 4L17 3L16 3L16 2L15 2L15 0L13 0L13 1L12 1L12 0ZM16 0L16 1L18 1L18 0ZM19 0L19 3L21 3L21 1L20 1L20 0ZM12 2L12 4L13 4L13 5L12 5L12 6L11 6L11 5L10 5L10 6L9 6L9 7L10 7L10 9L11 9L11 10L10 10L10 11L9 11L9 12L8 12L8 11L6 11L6 10L7 10L7 9L6 9L6 10L5 10L5 11L4 11L4 10L2 10L2 9L1 9L1 10L2 10L2 11L4 11L4 15L5 15L5 13L6 13L6 14L7 14L7 15L6 15L6 16L7 16L7 17L5 17L5 16L4 16L4 19L3 19L3 20L4 20L4 19L5 19L5 20L8 20L8 21L9 21L9 22L12 22L12 23L13 23L13 22L12 22L12 21L13 21L13 19L12 19L12 18L13 18L13 17L12 17L12 18L9 18L9 17L11 17L11 16L12 16L12 15L13 15L13 16L15 16L15 14L14 14L14 12L16 12L16 11L17 11L17 10L16 10L16 11L12 11L12 10L14 10L14 9L15 9L15 8L13 8L13 9L12 9L12 6L13 6L13 7L14 7L14 6L15 6L15 7L16 7L16 5L17 5L17 4L15 4L15 5L14 5L14 4L13 4L13 2ZM14 2L14 3L15 3L15 2ZM13 5L13 6L14 6L14 5ZM10 6L10 7L11 7L11 6ZM28 8L28 9L29 9L29 8ZM25 11L25 14L24 14L24 16L25 16L25 18L26 18L26 19L24 19L24 20L26 20L26 21L25 21L25 24L26 24L26 25L27 25L27 26L28 26L28 25L27 25L27 23L26 23L26 21L27 21L27 20L28 20L28 19L27 19L27 16L28 16L28 15L27 15L27 13L28 13L28 12L27 12L27 11ZM2 12L2 13L3 13L3 12ZM6 12L6 13L7 13L7 14L8 14L8 12ZM9 12L9 13L10 13L10 14L9 14L9 16L10 16L10 15L11 15L11 12ZM17 12L17 13L16 13L16 14L17 14L17 16L16 16L16 17L17 17L17 16L18 16L18 17L19 17L19 18L20 18L20 17L21 17L21 18L22 18L22 19L21 19L21 20L23 20L23 18L24 18L24 17L23 17L23 15L21 15L21 16L18 16L18 14L17 14L17 13L18 13L18 12ZM20 12L20 14L21 14L21 13L22 13L22 14L23 14L23 13L22 13L22 12ZM12 13L12 14L13 14L13 15L14 15L14 14L13 14L13 13ZM0 14L0 15L1 15L1 14ZM26 15L26 16L27 16L27 15ZM21 16L21 17L22 17L22 16ZM2 17L2 18L3 18L3 17ZM14 17L14 18L15 18L15 17ZM5 18L5 19L8 19L8 20L9 20L9 18ZM10 19L10 20L11 20L11 21L12 21L12 19ZM14 19L14 21L15 21L15 20L20 20L20 19ZM26 19L26 20L27 20L27 19ZM17 21L17 22L16 22L16 23L15 23L15 22L14 22L14 25L16 25L16 24L17 24L17 22L19 22L19 23L18 23L18 24L19 24L19 23L20 23L20 21ZM21 21L21 24L24 24L24 21ZM22 22L22 23L23 23L23 22ZM10 25L10 26L13 26L13 25ZM22 25L22 26L24 26L24 25ZM18 26L18 29L21 29L21 27L19 27L19 26ZM10 27L10 28L11 28L11 27ZM24 28L24 29L25 29L25 28ZM0 0L0 7L7 7L7 0ZM1 1L1 6L6 6L6 1ZM2 2L2 5L5 5L5 2ZM22 0L22 7L29 7L29 0ZM23 1L23 6L28 6L28 1ZM24 2L24 5L27 5L27 2ZM0 22L0 29L7 29L7 22ZM1 23L1 28L6 28L6 23ZM2 24L2 27L5 27L5 24Z" fill="#000000"/></g></g></svg>
