<?xml version="1.0" encoding="UTF-8"?>
<svg xmlns="http://www.w3.org/2000/svg" version="1.1" width="512" height="512" viewBox="0 0 512 512"><rect x="0" y="0" width="512" height="512" fill="#ffffff"/><g transform="scale(17.655)"><g transform="translate(0,0)"><path fill-rule="evenodd" d="M8 0L8 2L9 2L9 3L10 3L10 2L9 2L9 1L11 1L11 2L12 2L12 0ZM13 0L13 1L15 1L15 0ZM16 0L16 1L18 1L18 2L17 2L17 3L18 3L18 4L16 4L16 2L13 2L13 3L11 3L11 5L9 5L9 4L8 4L8 9L7 9L7 8L5 8L5 9L4 9L4 10L5 10L5 9L7 9L7 10L6 10L6 11L5 11L5 12L6 12L6 13L7 13L7 14L6 14L6 15L7 15L7 16L6 16L6 17L5 17L5 18L4 18L4 16L5 16L5 14L4 14L4 11L3 11L3 10L0 10L0 12L1 12L1 14L2 14L2 11L3 11L3 14L4 14L4 16L3 16L3 19L2 19L2 17L1 17L1 16L2 16L2 15L1 15L1 16L0 16L0 17L1 17L1 18L0 18L0 19L2 19L2 20L0 20L0 21L5 21L5 20L4 20L4 19L7 19L7 18L8 18L8 19L9 19L9 20L8 20L8 22L9 22L9 23L8 23L8 24L10 24L10 25L12 25L12 27L11 27L11 26L10 26L10 27L11 27L11 28L13 28L13 29L15 29L15 27L19 27L19 28L18 28L18 29L19 29L19 28L20 28L20 29L21 29L21 28L20 28L20 27L21 27L21 26L22 26L22 27L23 27L23 26L22 26L22 25L26 25L26 24L25 24L25 23L27 23L27 25L28 25L28 26L27 26L27 27L29 27L29 25L28 25L28 23L29 23L29 17L28 17L28 16L27 16L27 19L28 19L28 20L26 20L26 18L24 18L24 17L26 17L26 16L25 16L25 15L23 15L23 14L24 14L24 13L25 13L25 14L26 14L26 15L29 15L29 8L27 8L27 9L25 9L25 8L20 8L20 10L19 10L19 11L18 11L18 10L16 10L16 9L18 9L18 8L16 8L16 7L17 7L17 6L16 6L16 7L15 7L15 6L14 6L14 5L15 5L15 4L16 4L16 5L18 5L18 7L19 7L19 5L20 5L20 7L21 7L21 5L20 5L20 4L21 4L21 3L20 3L20 2L19 2L19 1L20 1L20 0L19 0L19 1L18 1L18 0ZM18 2L18 3L19 3L19 4L18 4L18 5L19 5L19 4L20 4L20 3L19 3L19 2ZM14 3L14 4L15 4L15 3ZM11 5L11 7L10 7L10 6L9 6L9 7L10 7L10 9L9 9L9 10L11 10L11 11L12 11L12 9L11 9L11 8L13 8L13 12L11 12L11 14L10 14L10 13L9 13L9 12L10 12L10 11L9 11L9 12L8 12L8 16L9 16L9 17L8 17L8 18L9 18L9 19L12 19L12 17L11 17L11 18L9 18L9 17L10 17L10 15L11 15L11 16L13 16L13 17L14 17L14 18L15 18L15 17L14 17L14 15L13 15L13 13L14 13L14 14L15 14L15 13L14 13L14 12L17 12L17 13L16 13L16 14L17 14L17 13L18 13L18 14L20 14L20 17L19 17L19 15L16 15L16 16L18 16L18 17L16 17L16 18L20 18L20 17L21 17L21 18L22 18L22 19L20 19L20 20L23 20L23 18L22 18L22 17L21 17L21 16L22 16L22 15L21 15L21 14L20 14L20 13L22 13L22 14L23 14L23 13L24 13L24 12L25 12L25 13L28 13L28 11L26 11L26 10L25 10L25 9L24 9L24 10L23 10L23 9L21 9L21 11L22 11L22 12L20 12L20 11L19 11L19 12L20 12L20 13L18 13L18 11L14 11L14 10L15 10L15 9L14 9L14 8L15 8L15 7L14 7L14 6L13 6L13 7L12 7L12 5ZM0 8L0 9L3 9L3 8ZM27 9L27 10L28 10L28 9ZM7 10L7 11L6 11L6 12L7 12L7 11L8 11L8 10ZM22 10L22 11L23 11L23 12L22 12L22 13L23 13L23 12L24 12L24 11L23 11L23 10ZM9 14L9 15L10 15L10 14ZM11 14L11 15L12 15L12 14ZM6 17L6 18L7 18L7 17ZM13 19L13 20L9 20L9 21L11 21L11 22L10 22L10 24L13 24L13 23L14 23L14 25L13 25L13 26L15 26L15 25L16 25L16 26L18 26L18 23L17 23L17 25L16 25L16 23L15 23L15 21L14 21L14 22L13 22L13 20L14 20L14 19ZM15 19L15 20L17 20L17 21L16 21L16 22L18 22L18 19ZM6 20L6 21L7 21L7 20ZM19 21L19 22L20 22L20 21ZM21 21L21 24L24 24L24 21ZM25 21L25 22L27 22L27 21ZM11 22L11 23L12 23L12 22ZM22 22L22 23L23 23L23 22ZM20 25L20 26L19 26L19 27L20 27L20 26L21 26L21 25ZM8 26L8 29L10 29L10 28L9 28L9 26ZM24 26L24 29L26 29L26 28L25 28L25 27L26 27L26 26ZM13 27L13 28L14 28L14 27ZM28 28L28 29L29 29L29 28ZM0 0L0 7L7 7L7 0ZM1 1L1 6L6 6L6 1ZM2 2L2 5L5 5L5 2ZM22 0L22 7L29 7L29 0ZM23 1L23 6L28 6L28 1ZM24 2L24 5L27 5L27 2ZM0 22L0 29L7 29L7 22ZM1 23L1 28L6 28L6 23ZM2 24L2 27L5 27L5 24Z" fill="#000000"/></g></g></svg>
