<?xml version="1.0" encoding="UTF-8"?>
<svg xmlns="http://www.w3.org/2000/svg" version="1.1" width="512" height="512" viewBox="0 0 512 512"><rect x="0" y="0" width="512" height="512" fill="#ffffff"/><g transform="scale(20.48)"><g transform="translate(0,0)"><path fill-rule="evenodd" d="M8 0L8 4L9 4L9 5L8 5L8 7L9 7L9 6L10 6L10 9L11 9L11 8L12 8L12 9L13 9L13 10L15 10L15 11L14 11L14 12L13 12L13 11L12 11L12 12L11 12L11 13L10 13L10 14L9 14L9 13L8 13L8 12L10 12L10 11L11 11L11 10L9 10L9 9L8 9L8 10L9 10L9 11L8 11L8 12L5 12L5 11L4 11L4 10L6 10L6 11L7 11L7 10L6 10L6 9L7 9L7 8L4 8L4 10L3 10L3 9L2 9L2 8L0 8L0 9L2 9L2 10L3 10L3 11L4 11L4 13L3 13L3 12L1 12L1 11L0 11L0 14L4 14L4 13L8 13L8 14L9 14L9 15L11 15L11 16L12 16L12 17L13 17L13 18L15 18L15 17L14 17L14 15L17 15L17 16L16 16L16 22L13 22L13 21L15 21L15 19L14 19L14 20L13 20L13 19L12 19L12 20L11 20L11 19L10 19L10 18L11 18L11 17L10 17L10 18L9 18L9 16L6 16L6 15L7 15L7 14L6 14L6 15L3 15L3 16L0 16L0 17L4 17L4 16L6 16L6 17L8 17L8 18L9 18L9 19L8 19L8 21L9 21L9 22L10 22L10 23L8 23L8 25L9 25L9 24L12 24L12 25L14 25L14 23L16 23L16 22L17 22L17 25L20 25L20 24L21 24L21 23L20 23L20 22L19 22L19 21L21 21L21 22L23 22L23 23L22 23L22 25L25 25L25 24L24 24L24 22L25 22L25 19L24 19L24 17L25 17L25 15L24 15L24 13L23 13L23 11L24 11L24 9L25 9L25 8L21 8L21 9L20 9L20 8L19 8L19 9L20 9L20 10L19 10L19 11L20 11L20 10L21 10L21 12L22 12L22 13L20 13L20 12L17 12L17 11L18 11L18 10L17 10L17 9L16 9L16 8L17 8L17 4L16 4L16 3L17 3L17 2L16 2L16 3L15 3L15 1L17 1L17 0L14 0L14 1L11 1L11 2L12 2L12 5L13 5L13 2L14 2L14 3L15 3L15 4L14 4L14 5L16 5L16 8L15 8L15 9L14 9L14 7L15 7L15 6L14 6L14 7L13 7L13 6L12 6L12 7L11 7L11 3L10 3L10 2L9 2L9 0ZM12 7L12 8L13 8L13 7ZM22 9L22 11L23 11L23 9ZM16 10L16 11L17 11L17 10ZM12 12L12 13L11 13L11 14L12 14L12 13L13 13L13 14L15 14L15 13L13 13L13 12ZM16 12L16 13L17 13L17 12ZM18 13L18 14L19 14L19 15L20 15L20 16L21 16L21 18L23 18L23 17L24 17L24 16L22 16L22 14L20 14L20 13ZM12 15L12 16L13 16L13 15ZM17 17L17 20L20 20L20 17ZM18 18L18 19L19 19L19 18ZM9 19L9 21L10 21L10 22L12 22L12 21L13 21L13 20L12 20L12 21L10 21L10 19ZM21 19L21 21L22 21L22 19ZM23 20L23 21L24 21L24 20ZM12 23L12 24L13 24L13 23ZM15 24L15 25L16 25L16 24ZM0 0L0 7L7 7L7 0ZM1 1L1 6L6 6L6 1ZM2 2L2 5L5 5L5 2ZM18 0L18 7L25 7L25 0ZM19 1L19 6L24 6L24 1ZM20 2L20 5L23 5L23 2ZM0 18L0 25L7 25L7 18ZM1 19L1 24L6 24L6 19ZM2 20L2 23L5 23L5 20Z" fill="#000000"/></g></g></svg>
