<?xml version="1.0" encoding="UTF-8"?>
<svg xmlns="http://www.w3.org/2000/svg" version="1.1" width="512" height="512" viewBox="0 0 512 512"><rect x="0" y="0" width="512" height="512" fill="#ffffff"/><g transform="scale(20.48)"><g transform="translate(0,0)"><path fill-rule="evenodd" d="M10 0L10 1L8 1L8 3L9 3L9 4L8 4L8 8L6 8L6 9L4 9L4 8L3 8L3 9L2 9L2 8L0 8L0 9L1 9L1 10L3 10L3 9L4 9L4 10L6 10L6 11L8 11L8 13L7 13L7 12L6 12L6 13L5 13L5 11L2 11L2 12L1 12L1 11L0 11L0 12L1 12L1 13L3 13L3 14L2 14L2 15L1 15L1 14L0 14L0 15L1 15L1 16L0 16L0 17L5 17L5 16L6 16L6 17L8 17L8 19L9 19L9 21L8 21L8 22L10 22L10 21L11 21L11 22L12 22L12 21L11 21L11 20L10 20L10 19L9 19L9 18L10 18L10 17L11 17L11 16L12 16L12 18L11 18L11 19L12 19L12 20L13 20L13 18L14 18L14 20L15 20L15 19L16 19L16 21L19 21L19 22L20 22L20 25L21 25L21 23L23 23L23 22L22 22L22 21L21 21L21 18L22 18L22 20L24 20L24 21L25 21L25 20L24 20L24 19L25 19L25 13L24 13L24 14L21 14L21 15L19 15L19 14L20 14L20 11L21 11L21 12L22 12L22 11L23 11L23 12L24 12L24 11L25 11L25 9L24 9L24 8L22 8L22 9L24 9L24 11L23 11L23 10L20 10L20 11L19 11L19 9L21 9L21 8L18 8L18 9L17 9L17 8L16 8L16 11L15 11L15 10L14 10L14 9L15 9L15 8L12 8L12 7L13 7L13 6L14 6L14 7L15 7L15 6L16 6L16 7L17 7L17 1L16 1L16 0L14 0L14 1L15 1L15 2L14 2L14 5L13 5L13 3L12 3L12 7L11 7L11 4L10 4L10 3L9 3L9 2L11 2L11 0ZM9 5L9 8L8 8L8 9L6 9L6 10L8 10L8 11L11 11L11 8L10 8L10 5ZM9 9L9 10L10 10L10 9ZM17 10L17 11L18 11L18 12L19 12L19 11L18 11L18 10ZM14 11L14 12L12 12L12 16L14 16L14 17L15 17L15 16L16 16L16 14L17 14L17 12L15 12L15 11ZM3 12L3 13L4 13L4 15L3 15L3 16L4 16L4 15L6 15L6 16L7 16L7 15L6 15L6 14L7 14L7 13L6 13L6 14L5 14L5 13L4 13L4 12ZM9 12L9 14L8 14L8 16L9 16L9 17L10 17L10 16L9 16L9 15L10 15L10 14L11 14L11 13L10 13L10 12ZM14 12L14 13L13 13L13 15L15 15L15 14L14 14L14 13L15 13L15 12ZM17 15L17 16L19 16L19 15ZM21 15L21 17L22 17L22 18L23 18L23 19L24 19L24 18L23 18L23 17L24 17L24 16L23 16L23 15ZM17 17L17 20L20 20L20 17ZM18 18L18 19L19 19L19 18ZM14 21L14 22L15 22L15 21ZM16 22L16 23L14 23L14 24L15 24L15 25L17 25L17 24L18 24L18 25L19 25L19 24L18 24L18 23L17 23L17 22ZM24 22L24 23L25 23L25 22ZM8 23L8 25L11 25L11 24L10 24L10 23ZM12 24L12 25L13 25L13 24ZM23 24L23 25L25 25L25 24ZM0 0L0 7L7 7L7 0ZM1 1L1 6L6 6L6 1ZM2 2L2 5L5 5L5 2ZM18 0L18 7L25 7L25 0ZM19 1L19 6L24 6L24 1ZM20 2L20 5L23 5L23 2ZM0 18L0 25L7 25L7 18ZM1 19L1 24L6 24L6 19ZM2 20L2 23L5 23L5 20Z" fill="#000000"/></g></g></svg>
