<?xml version="1.0" encoding="UTF-8"?>
<svg xmlns="http://www.w3.org/2000/svg" version="1.1" width="512" height="512" viewBox="0 0 512 512"><rect x="0" y="0" width="512" height="512" fill="#ffffff"/><g transform="scale(20.48)"><g transform="translate(0,0)"><path fill-rule="evenodd" d="M9 0L9 1L8 1L8 2L9 2L9 3L8 3L8 4L10 4L10 7L11 7L11 4L12 4L12 5L13 5L13 6L12 6L12 9L16 9L16 10L15 10L15 11L14 11L14 12L13 12L13 13L12 13L12 11L13 11L13 10L11 10L11 11L10 11L10 9L11 9L11 8L6 8L6 9L8 9L8 11L7 11L7 10L5 10L5 8L0 8L0 10L1 10L1 11L0 11L0 12L1 12L1 13L0 13L0 17L1 17L1 14L2 14L2 16L3 16L3 17L4 17L4 16L5 16L5 15L7 15L7 16L6 16L6 17L8 17L8 19L9 19L9 20L8 20L8 25L11 25L11 24L10 24L10 22L11 22L11 21L12 21L12 22L14 22L14 23L15 23L15 24L13 24L13 23L12 23L12 25L15 25L15 24L17 24L17 25L19 25L19 24L20 24L20 22L22 22L22 23L23 23L23 22L24 22L24 24L21 24L21 25L25 25L25 21L23 21L23 20L22 20L22 21L21 21L21 19L22 19L22 16L16 16L16 15L18 15L18 14L17 14L17 13L19 13L19 14L20 14L20 15L21 15L21 14L20 14L20 13L22 13L22 14L24 14L24 15L25 15L25 14L24 14L24 13L23 13L23 12L25 12L25 10L24 10L24 8L23 8L23 9L22 9L22 8L21 8L21 10L20 10L20 8L19 8L19 10L20 10L20 11L21 11L21 12L19 12L19 11L17 11L17 9L18 9L18 8L15 8L15 6L16 6L16 7L17 7L17 4L16 4L16 2L17 2L17 0L16 0L16 1L14 1L14 0L13 0L13 1L11 1L11 2L10 2L10 0ZM13 1L13 2L12 2L12 4L13 4L13 5L14 5L14 6L13 6L13 8L14 8L14 6L15 6L15 5L16 5L16 4L15 4L15 5L14 5L14 4L13 4L13 3L15 3L15 2L14 2L14 1ZM10 3L10 4L11 4L11 3ZM8 5L8 7L9 7L9 5ZM1 9L1 10L2 10L2 11L1 11L1 12L3 12L3 13L2 13L2 14L3 14L3 16L4 16L4 15L5 15L5 14L8 14L8 13L9 13L9 11L8 11L8 13L4 13L4 11L5 11L5 12L7 12L7 11L5 11L5 10L3 10L3 9ZM21 10L21 11L22 11L22 12L23 12L23 11L24 11L24 10ZM10 12L10 13L11 13L11 16L10 16L10 17L9 17L9 19L11 19L11 18L13 18L13 19L12 19L12 20L14 20L14 19L15 19L15 20L16 20L16 16L15 16L15 14L16 14L16 13L13 13L13 14L12 14L12 13L11 13L11 12ZM9 14L9 15L8 15L8 16L9 16L9 15L10 15L10 14ZM13 14L13 15L12 15L12 17L13 17L13 18L14 18L14 17L15 17L15 16L13 16L13 15L14 15L14 14ZM24 16L24 17L23 17L23 18L24 18L24 20L25 20L25 18L24 18L24 17L25 17L25 16ZM17 17L17 20L20 20L20 17ZM18 18L18 19L19 19L19 18ZM9 20L9 22L10 22L10 21L11 21L11 20ZM14 21L14 22L16 22L16 23L17 23L17 24L18 24L18 23L19 23L19 22L20 22L20 21L19 21L19 22L17 22L17 21ZM22 21L22 22L23 22L23 21ZM0 0L0 7L7 7L7 0ZM1 1L1 6L6 6L6 1ZM2 2L2 5L5 5L5 2ZM18 0L18 7L25 7L25 0ZM19 1L19 6L24 6L24 1ZM20 2L20 5L23 5L23 2ZM0 18L0 25L7 25L7 18ZM1 19L1 24L6 24L6 19ZM2 20L2 23L5 23L5 20Z" fill="#000000"/></g></g></svg>
