<?xml version="1.0" encoding="UTF-8"?>
<svg xmlns="http://www.w3.org/2000/svg" version="1.1" width="512" height="512" viewBox="0 0 512 512"><rect x="0" y="0" width="512" height="512" fill="#ffffff"/><g transform="scale(20.48)"><g transform="translate(0,0)"><path fill-rule="evenodd" d="M9 0L9 1L8 1L8 2L9 2L9 3L8 3L8 4L10 4L10 7L11 7L11 4L12 4L12 5L13 5L13 4L15 4L15 3L13 3L13 4L12 4L12 2L14 2L14 1L15 1L15 2L16 2L16 1L17 1L17 0L16 0L16 1L15 1L15 0L13 0L13 1L11 1L11 2L10 2L10 0ZM10 3L10 4L11 4L11 3ZM16 3L16 5L15 5L15 6L14 6L14 8L13 8L13 6L12 6L12 9L13 9L13 10L11 10L11 11L10 11L10 9L11 9L11 8L6 8L6 9L7 9L7 10L6 10L6 11L3 11L3 13L0 13L0 17L1 17L1 14L2 14L2 15L3 15L3 16L2 16L2 17L3 17L3 16L4 16L4 17L5 17L5 16L6 16L6 17L7 17L7 16L6 16L6 15L7 15L7 14L6 14L6 15L5 15L5 13L8 13L8 12L9 12L9 14L8 14L8 15L9 15L9 16L8 16L8 19L10 19L10 18L9 18L9 16L11 16L11 13L12 13L12 14L13 14L13 15L12 15L12 17L15 17L15 16L16 16L16 20L15 20L15 19L14 19L14 20L15 20L15 21L17 21L17 22L19 22L19 23L18 23L18 24L17 24L17 23L16 23L16 22L14 22L14 21L12 21L12 19L13 19L13 18L11 18L11 20L10 20L10 21L9 21L9 20L8 20L8 25L9 25L9 23L11 23L11 22L10 22L10 21L12 21L12 22L13 22L13 23L12 23L12 25L13 25L13 24L14 24L14 25L15 25L15 24L17 24L17 25L19 25L19 24L20 24L20 22L22 22L22 23L23 23L23 22L24 22L24 24L21 24L21 25L25 25L25 20L22 20L22 21L21 21L21 19L22 19L22 16L16 16L16 15L18 15L18 14L17 14L17 13L19 13L19 14L20 14L20 15L21 15L21 14L20 14L20 13L22 13L22 14L24 14L24 15L23 15L23 16L24 16L24 17L23 17L23 18L24 18L24 19L25 19L25 18L24 18L24 17L25 17L25 16L24 16L24 15L25 15L25 14L24 14L24 13L25 13L25 10L24 10L24 8L23 8L23 10L24 10L24 13L23 13L23 12L22 12L22 8L21 8L21 10L20 10L20 8L19 8L19 10L20 10L20 11L21 11L21 12L19 12L19 11L17 11L17 9L18 9L18 8L17 8L17 9L16 9L16 7L17 7L17 3ZM8 5L8 7L9 7L9 5ZM15 6L15 7L16 7L16 6ZM0 8L0 10L1 10L1 11L2 11L2 9L3 9L3 10L4 10L4 9L5 9L5 8ZM8 9L8 10L9 10L9 9ZM14 9L14 10L13 10L13 11L12 11L12 13L13 13L13 14L14 14L14 15L13 15L13 16L15 16L15 14L16 14L16 13L15 13L15 14L14 14L14 13L13 13L13 12L15 12L15 10L16 10L16 9ZM6 11L6 12L7 12L7 11ZM4 12L4 13L5 13L5 12ZM10 12L10 13L11 13L11 12ZM3 14L3 15L4 15L4 14ZM9 14L9 15L10 15L10 14ZM17 17L17 20L20 20L20 17ZM18 18L18 19L19 19L19 18ZM19 21L19 22L20 22L20 21ZM22 21L22 22L23 22L23 21ZM14 23L14 24L15 24L15 23ZM10 24L10 25L11 25L11 24ZM0 0L0 7L7 7L7 0ZM1 1L1 6L6 6L6 1ZM2 2L2 5L5 5L5 2ZM18 0L18 7L25 7L25 0ZM19 1L19 6L24 6L24 1ZM20 2L20 5L23 5L23 2ZM0 18L0 25L7 25L7 18ZM1 19L1 24L6 24L6 19ZM2 20L2 23L5 23L5 20Z" fill="#000000"/></g></g></svg>
