<?xml version="1.0" encoding="UTF-8"?>
<svg xmlns="http://www.w3.org/2000/svg" version="1.1" width="512" height="512" viewBox="0 0 512 512"><rect x="0" y="0" width="512" height="512" fill="#ffffff"/><g transform="scale(20.48)"><g transform="translate(0,0)"><path fill-rule="evenodd" d="M8 0L8 1L9 1L9 2L8 2L8 5L9 5L9 4L11 4L11 5L10 5L10 10L9 10L9 12L8 12L8 10L6 10L6 11L5 11L5 9L4 9L4 8L0 8L0 10L1 10L1 12L0 12L0 13L2 13L2 14L1 14L1 15L0 15L0 16L1 16L1 15L2 15L2 14L4 14L4 15L3 15L3 16L2 16L2 17L3 17L3 16L4 16L4 17L5 17L5 16L4 16L4 15L8 15L8 13L9 13L9 14L10 14L10 13L11 13L11 15L9 15L9 17L8 17L8 16L6 16L6 17L8 17L8 18L11 18L11 17L10 17L10 16L12 16L12 17L13 17L13 16L12 16L12 14L13 14L13 15L14 15L14 18L13 18L13 21L15 21L15 20L16 20L16 21L17 21L17 24L19 24L19 23L21 23L21 24L20 24L20 25L25 25L25 24L23 24L23 23L24 23L24 22L25 22L25 21L22 21L22 18L24 18L24 20L25 20L25 17L24 17L24 15L23 15L23 11L24 11L24 9L25 9L25 8L24 8L24 9L23 9L23 8L20 8L20 9L19 9L19 10L20 10L20 11L19 11L19 12L18 12L18 11L17 11L17 13L15 13L15 12L14 12L14 14L13 14L13 12L12 12L12 13L11 13L11 11L14 11L14 8L15 8L15 6L14 6L14 8L13 8L13 6L12 6L12 5L13 5L13 4L14 4L14 5L17 5L17 4L16 4L16 3L17 3L17 2L15 2L15 1L14 1L14 0L12 0L12 1L11 1L11 0L10 0L10 1L9 1L9 0ZM16 0L16 1L17 1L17 0ZM13 1L13 2L11 2L11 4L12 4L12 3L13 3L13 2L14 2L14 1ZM8 6L8 7L9 7L9 6ZM11 6L11 8L12 8L12 6ZM16 6L16 7L17 7L17 6ZM6 8L6 9L7 9L7 8ZM8 8L8 9L9 9L9 8ZM16 8L16 10L18 10L18 8ZM2 9L2 13L3 13L3 12L4 12L4 13L6 13L6 14L7 14L7 13L6 13L6 12L7 12L7 11L6 11L6 12L4 12L4 9ZM11 9L11 10L12 10L12 9ZM20 9L20 10L22 10L22 11L21 11L21 12L22 12L22 11L23 11L23 9ZM19 12L19 13L20 13L20 12ZM24 12L24 14L25 14L25 12ZM17 13L17 15L18 15L18 16L21 16L21 18L22 18L22 17L23 17L23 15L21 15L21 14L18 14L18 13ZM14 14L14 15L16 15L16 14ZM15 17L15 19L16 19L16 17ZM17 17L17 20L20 20L20 17ZM18 18L18 19L19 19L19 18ZM9 19L9 21L8 21L8 25L12 25L12 24L16 24L16 22L14 22L14 23L11 23L11 20L12 20L12 19ZM9 21L9 24L11 24L11 23L10 23L10 21ZM19 21L19 22L20 22L20 21ZM21 22L21 23L22 23L22 22ZM0 0L0 7L7 7L7 0ZM1 1L1 6L6 6L6 1ZM2 2L2 5L5 5L5 2ZM18 0L18 7L25 7L25 0ZM19 1L19 6L24 6L24 1ZM20 2L20 5L23 5L23 2ZM0 18L0 25L7 25L7 18ZM1 19L1 24L6 24L6 19ZM2 20L2 23L5 23L5 20Z" fill="#000000"/></g></g></svg>
