<?xml version="1.0" encoding="UTF-8"?>
<svg xmlns="http://www.w3.org/2000/svg" version="1.1" width="512" height="512" viewBox="0 0 512 512"><rect x="0" y="0" width="512" height="512" fill="#ffffff"/><g transform="scale(20.48)"><g transform="translate(0,0)"><path fill-rule="evenodd" d="M9 0L9 1L10 1L10 2L8 2L8 3L9 3L9 4L10 4L10 5L9 5L9 6L8 6L8 8L4 8L4 9L3 9L3 8L0 8L0 10L2 10L2 11L1 11L1 12L0 12L0 13L2 13L2 14L3 14L3 15L1 15L1 14L0 14L0 15L1 15L1 16L0 16L0 17L1 17L1 16L3 16L3 17L4 17L4 16L5 16L5 15L4 15L4 14L3 14L3 13L2 13L2 12L4 12L4 13L5 13L5 14L6 14L6 15L7 15L7 14L6 14L6 13L8 13L8 12L6 12L6 13L5 13L5 11L10 11L10 10L12 10L12 8L14 8L14 9L15 9L15 8L16 8L16 11L15 11L15 13L16 13L16 15L15 15L15 14L14 14L14 13L13 13L13 12L12 12L12 11L11 11L11 12L12 12L12 13L11 13L11 14L9 14L9 15L10 15L10 19L9 19L9 17L8 17L8 21L9 21L9 22L8 22L8 25L9 25L9 24L10 24L10 23L12 23L12 24L11 24L11 25L12 25L12 24L14 24L14 25L17 25L17 22L14 22L14 21L13 21L13 20L12 20L12 19L11 19L11 18L12 18L12 16L14 16L14 18L13 18L13 19L14 19L14 18L15 18L15 19L16 19L16 21L19 21L19 23L18 23L18 24L19 24L19 23L21 23L21 22L23 22L23 21L22 21L22 20L21 20L21 18L22 18L22 19L23 19L23 18L22 18L22 17L23 17L23 16L22 16L22 17L21 17L21 16L20 16L20 15L23 15L23 13L22 13L22 14L19 14L19 12L22 12L22 11L23 11L23 12L24 12L24 21L25 21L25 12L24 12L24 11L25 11L25 9L24 9L24 11L23 11L23 8L22 8L22 9L21 9L21 10L20 10L20 11L19 11L19 8L16 8L16 7L17 7L17 5L16 5L16 3L17 3L17 2L16 2L16 0L12 0L12 1L10 1L10 0ZM14 1L14 2L13 2L13 3L12 3L12 2L11 2L11 3L12 3L12 4L11 4L11 5L10 5L10 6L9 6L9 7L10 7L10 6L11 6L11 8L12 8L12 6L13 6L13 7L14 7L14 8L15 8L15 7L16 7L16 6L15 6L15 5L14 5L14 3L15 3L15 1ZM14 6L14 7L15 7L15 6ZM9 8L9 10L10 10L10 8ZM4 9L4 10L3 10L3 11L5 11L5 9ZM6 9L6 10L8 10L8 9ZM17 9L17 10L18 10L18 9ZM13 10L13 11L14 11L14 10ZM17 11L17 12L19 12L19 11ZM17 13L17 16L18 16L18 13ZM13 14L13 15L14 15L14 14ZM3 15L3 16L4 16L4 15ZM11 15L11 16L12 16L12 15ZM6 16L6 17L7 17L7 16ZM17 17L17 20L20 20L20 17ZM18 18L18 19L19 19L19 18ZM10 19L10 20L11 20L11 21L12 21L12 20L11 20L11 19ZM9 22L9 23L10 23L10 22ZM13 22L13 23L14 23L14 22ZM24 22L24 23L23 23L23 25L25 25L25 24L24 24L24 23L25 23L25 22ZM15 23L15 24L16 24L16 23ZM0 0L0 7L7 7L7 0ZM1 1L1 6L6 6L6 1ZM2 2L2 5L5 5L5 2ZM18 0L18 7L25 7L25 0ZM19 1L19 6L24 6L24 1ZM20 2L20 5L23 5L23 2ZM0 18L0 25L7 25L7 18ZM1 19L1 24L6 24L6 19ZM2 20L2 23L5 23L5 20Z" fill="#000000"/></g></g></svg>
