<?xml version="1.0" encoding="UTF-8"?>
<svg xmlns="http://www.w3.org/2000/svg" version="1.1" width="512" height="512" viewBox="0 0 512 512"><rect x="0" y="0" width="512" height="512" fill="#ffffff"/><g transform="scale(20.48)"><g transform="translate(0,0)"><path fill-rule="evenodd" d="M8 0L8 4L9 4L9 5L8 5L8 7L9 7L9 6L10 6L10 9L11 9L11 8L12 8L12 9L13 9L13 10L15 10L15 11L14 11L14 12L13 12L13 11L12 11L12 12L11 12L11 13L9 13L9 14L8 14L8 11L7 11L7 10L6 10L6 9L7 9L7 8L4 8L4 9L5 9L5 10L6 10L6 11L5 11L5 12L6 12L6 13L3 13L3 14L2 14L2 13L1 13L1 12L4 12L4 10L2 10L2 11L1 11L1 9L2 9L2 8L0 8L0 14L2 14L2 16L0 16L0 17L2 17L2 16L3 16L3 17L4 17L4 16L5 16L5 17L7 17L7 16L6 16L6 15L10 15L10 16L9 16L9 17L8 17L8 18L9 18L9 19L8 19L8 21L9 21L9 23L8 23L8 25L10 25L10 24L12 24L12 25L14 25L14 23L15 23L15 25L16 25L16 23L15 23L15 22L16 22L16 21L17 21L17 25L20 25L20 21L23 21L23 23L22 23L22 22L21 22L21 23L22 23L22 25L25 25L25 24L24 24L24 22L25 22L25 19L24 19L24 17L25 17L25 15L24 15L24 13L25 13L25 12L24 12L24 13L23 13L23 11L24 11L24 9L25 9L25 8L21 8L21 9L20 9L20 8L19 8L19 9L20 9L20 10L19 10L19 11L20 11L20 12L17 12L17 13L15 13L15 12L16 12L16 11L18 11L18 10L17 10L17 9L16 9L16 8L17 8L17 6L16 6L16 7L15 7L15 6L14 6L14 7L13 7L13 6L12 6L12 7L11 7L11 3L10 3L10 2L9 2L9 0ZM14 0L14 1L16 1L16 2L15 2L15 4L14 4L14 5L17 5L17 0ZM11 1L11 2L12 2L12 5L13 5L13 1ZM12 7L12 8L13 8L13 7ZM14 7L14 9L15 9L15 7ZM21 9L21 11L23 11L23 9ZM9 10L9 12L10 12L10 11L11 11L11 10ZM6 11L6 12L7 12L7 11ZM12 12L12 13L11 13L11 14L10 14L10 15L11 15L11 14L12 14L12 13L13 13L13 14L15 14L15 13L13 13L13 12ZM20 12L20 13L18 13L18 15L20 15L20 16L21 16L21 18L23 18L23 17L24 17L24 15L23 15L23 16L22 16L22 14L21 14L21 15L20 15L20 13L22 13L22 12ZM6 13L6 14L5 14L5 15L6 15L6 14L7 14L7 13ZM16 14L16 15L17 15L17 14ZM12 15L12 16L10 16L10 17L11 17L11 20L10 20L10 19L9 19L9 21L10 21L10 22L12 22L12 21L13 21L13 22L15 22L15 21L16 21L16 16L15 16L15 15L14 15L14 17L15 17L15 18L13 18L13 17L12 17L12 16L13 16L13 15ZM17 17L17 20L20 20L20 17ZM18 18L18 19L19 19L19 18ZM12 19L12 20L11 20L11 21L12 21L12 20L13 20L13 21L15 21L15 19L14 19L14 20L13 20L13 19ZM21 19L21 20L22 20L22 19ZM23 20L23 21L24 21L24 20ZM12 23L12 24L13 24L13 23ZM18 23L18 24L19 24L19 23ZM0 0L0 7L7 7L7 0ZM1 1L1 6L6 6L6 1ZM2 2L2 5L5 5L5 2ZM18 0L18 7L25 7L25 0ZM19 1L19 6L24 6L24 1ZM20 2L20 5L23 5L23 2ZM0 18L0 25L7 25L7 18ZM1 19L1 24L6 24L6 19ZM2 20L2 23L5 23L5 20Z" fill="#000000"/></g></g></svg>
