<?xml version="1.0" encoding="UTF-8"?>
<svg xmlns="http://www.w3.org/2000/svg" version="1.1" width="512" height="512" viewBox="0 0 512 512"><rect x="0" y="0" width="512" height="512" fill="#ffffff"/><g transform="scale(24.381)"><g transform="translate(0,0)"><path fill-rule="evenodd" d="M8 0L8 1L9 1L9 0ZM10 0L10 2L8 2L8 5L9 5L9 6L8 6L8 7L9 7L9 6L10 6L10 7L11 7L11 8L8 8L8 9L7 9L7 8L6 8L6 9L7 9L7 10L6 10L6 11L5 11L5 12L4 12L4 10L5 10L5 9L4 9L4 8L0 8L0 9L1 9L1 10L0 10L0 13L8 13L8 14L11 14L11 15L10 15L10 16L12 16L12 14L13 14L13 16L14 16L14 14L15 14L15 16L16 16L16 17L11 17L11 19L13 19L13 21L15 21L15 19L13 19L13 18L16 18L16 17L17 17L17 19L19 19L19 18L20 18L20 16L21 16L21 15L20 15L20 13L19 13L19 15L18 15L18 14L17 14L17 13L18 13L18 12L17 12L17 11L16 11L16 10L17 10L17 9L18 9L18 10L20 10L20 12L21 12L21 8L20 8L20 9L19 9L19 8L16 8L16 9L14 9L14 8L13 8L13 6L12 6L12 5L13 5L13 4L11 4L11 5L9 5L9 4L10 4L10 2L11 2L11 3L12 3L12 1L13 1L13 0L12 0L12 1L11 1L11 0ZM11 6L11 7L12 7L12 6ZM11 8L11 9L10 9L10 10L9 10L9 11L8 11L8 10L7 10L7 11L6 11L6 12L7 12L7 11L8 11L8 13L10 13L10 12L9 12L9 11L10 11L10 10L11 10L11 11L12 11L12 12L11 12L11 13L12 13L12 12L13 12L13 13L14 13L14 12L15 12L15 11L13 11L13 10L14 10L14 9L13 9L13 8ZM3 9L3 10L4 10L4 9ZM11 9L11 10L12 10L12 9ZM1 10L1 11L2 11L2 12L3 12L3 11L2 11L2 10ZM16 12L16 13L15 13L15 14L16 14L16 13L17 13L17 12ZM17 15L17 16L18 16L18 15ZM8 17L8 21L10 21L10 20L9 20L9 17ZM20 19L20 20L21 20L21 19ZM16 20L16 21L17 21L17 20ZM0 0L0 7L7 7L7 0ZM1 1L1 6L6 6L6 1ZM2 2L2 5L5 5L5 2ZM14 0L14 7L21 7L21 0ZM15 1L15 6L20 6L20 1ZM16 2L16 5L19 5L19 2ZM0 14L0 21L7 21L7 14ZM1 15L1 20L6 20L6 15ZM2 16L2 19L5 19L5 16Z" fill="#000000"/></g></g></svg>
