<?xml version="1.0" encoding="UTF-8"?>
<svg xmlns="http://www.w3.org/2000/svg" version="1.1" width="512" height="512" viewBox="0 0 512 512"><rect x="0" y="0" width="512" height="512" fill="#ffffff"/><g transform="scale(17.655)"><g transform="translate(0,0)"><path fill-rule="evenodd" d="M10 0L10 1L9 1L9 2L8 2L8 3L9 3L9 5L10 5L10 7L11 7L11 8L12 8L12 9L11 9L11 10L10 10L10 9L9 9L9 6L8 6L8 8L4 8L4 9L3 9L3 8L0 8L0 9L2 9L2 10L4 10L4 11L0 11L0 13L2 13L2 14L0 14L0 16L1 16L1 17L3 17L3 18L2 18L2 19L1 19L1 18L0 18L0 19L1 19L1 20L0 20L0 21L1 21L1 20L3 20L3 21L4 21L4 20L5 20L5 21L8 21L8 25L9 25L9 26L8 26L8 29L12 29L12 28L14 28L14 29L15 29L15 28L16 28L16 29L24 29L24 27L25 27L25 26L24 26L24 25L25 25L25 24L26 24L26 23L25 23L25 22L26 22L26 21L25 21L25 20L26 20L26 19L27 19L27 18L26 18L26 17L27 17L27 16L26 16L26 17L25 17L25 16L22 16L22 15L21 15L21 14L23 14L23 15L24 15L24 14L23 14L23 11L25 11L25 12L24 12L24 13L25 13L25 14L26 14L26 13L25 13L25 12L26 12L26 11L27 11L27 8L26 8L26 10L22 10L22 11L21 11L21 12L20 12L20 11L19 11L19 10L21 10L21 9L23 9L23 8L21 8L21 6L20 6L20 5L19 5L19 4L21 4L21 3L19 3L19 2L21 2L21 1L17 1L17 0L14 0L14 1L15 1L15 2L14 2L14 3L15 3L15 4L13 4L13 3L12 3L12 2L11 2L11 3L12 3L12 5L10 5L10 3L9 3L9 2L10 2L10 1L11 1L11 0ZM16 1L16 2L17 2L17 3L16 3L16 4L17 4L17 5L16 5L16 6L15 6L15 5L14 5L14 6L13 6L13 7L12 7L12 6L11 6L11 7L12 7L12 8L13 8L13 7L14 7L14 6L15 6L15 7L16 7L16 8L15 8L15 9L13 9L13 11L14 11L14 10L15 10L15 11L16 11L16 10L17 10L17 11L18 11L18 12L17 12L17 13L14 13L14 12L12 12L12 11L11 11L11 12L12 12L12 14L11 14L11 15L12 15L12 16L11 16L11 17L9 17L9 16L8 16L8 15L9 15L9 14L10 14L10 12L8 12L8 10L9 10L9 11L10 11L10 10L9 10L9 9L8 9L8 10L7 10L7 9L6 9L6 10L7 10L7 11L6 11L6 12L7 12L7 13L6 13L6 14L7 14L7 13L9 13L9 14L8 14L8 15L6 15L6 16L8 16L8 17L4 17L4 18L3 18L3 19L6 19L6 20L7 20L7 19L6 19L6 18L8 18L8 21L9 21L9 19L10 19L10 20L12 20L12 22L11 22L11 23L10 23L10 22L9 22L9 25L12 25L12 24L13 24L13 25L14 25L14 26L13 26L13 27L14 27L14 26L15 26L15 27L16 27L16 28L17 28L17 27L18 27L18 28L19 28L19 27L20 27L20 28L23 28L23 27L20 27L20 26L19 26L19 25L20 25L20 20L22 20L22 18L24 18L24 19L23 19L23 20L24 20L24 19L26 19L26 18L25 18L25 17L21 17L21 16L19 16L19 17L21 17L21 18L19 18L19 22L17 22L17 21L16 21L16 20L17 20L17 19L18 19L18 18L17 18L17 17L16 17L16 16L17 16L17 15L18 15L18 14L19 14L19 15L20 15L20 14L19 14L19 11L18 11L18 10L19 10L19 9L21 9L21 8L19 8L19 9L16 9L16 8L17 8L17 7L18 7L18 6L17 6L17 5L18 5L18 4L17 4L17 3L18 3L18 2L17 2L17 1ZM16 6L16 7L17 7L17 6ZM19 6L19 7L20 7L20 6ZM4 9L4 10L5 10L5 9ZM28 9L28 11L29 11L29 9ZM4 11L4 12L3 12L3 14L2 14L2 15L3 15L3 14L4 14L4 15L5 15L5 14L4 14L4 13L5 13L5 11ZM21 12L21 13L22 13L22 12ZM27 12L27 14L28 14L28 15L29 15L29 13L28 13L28 12ZM17 13L17 14L16 14L16 15L17 15L17 14L18 14L18 13ZM13 14L13 15L14 15L14 14ZM12 16L12 17L11 17L11 19L12 19L12 20L14 20L14 22L13 22L13 23L14 23L14 22L15 22L15 20L16 20L16 19L17 19L17 18L16 18L16 19L15 19L15 18L14 18L14 17L13 17L13 16ZM28 16L28 24L27 24L27 26L28 26L28 27L27 27L27 28L26 28L26 29L29 29L29 28L28 28L28 27L29 27L29 16ZM13 18L13 19L14 19L14 18ZM21 21L21 24L24 24L24 21ZM16 22L16 23L17 23L17 24L16 24L16 25L19 25L19 23L17 23L17 22ZM22 22L22 23L23 23L23 22ZM11 23L11 24L12 24L12 23ZM21 25L21 26L23 26L23 25ZM10 26L10 28L12 28L12 27L11 27L11 26ZM16 26L16 27L17 27L17 26ZM0 0L0 7L7 7L7 0ZM1 1L1 6L6 6L6 1ZM2 2L2 5L5 5L5 2ZM22 0L22 7L29 7L29 0ZM23 1L23 6L28 6L28 1ZM24 2L24 5L27 5L27 2ZM0 22L0 29L7 29L7 22ZM1 23L1 28L6 28L6 23ZM2 24L2 27L5 27L5 24Z" fill="#000000"/></g></g></svg>
