<?xml version="1.0" encoding="UTF-8"?>
<svg xmlns="http://www.w3.org/2000/svg" version="1.1" width="512" height="512" viewBox="0 0 512 512"><rect x="0" y="0" width="512" height="512" fill="#ffffff"/><g transform="scale(24.381)"><g transform="translate(0,0)"><path fill-rule="evenodd" d="M9 0L9 1L10 1L10 0ZM11 0L11 3L10 3L10 2L9 2L9 3L8 3L8 5L9 5L9 3L10 3L10 7L9 7L9 6L8 6L8 7L9 7L9 10L6 10L6 9L8 9L8 8L5 8L5 9L3 9L3 10L5 10L5 12L3 12L3 11L2 11L2 10L1 10L1 9L2 9L2 8L0 8L0 10L1 10L1 12L3 12L3 13L5 13L5 12L6 12L6 13L7 13L7 12L6 12L6 11L10 11L10 12L9 12L9 13L8 13L8 16L9 16L9 18L10 18L10 19L8 19L8 21L10 21L10 19L11 19L11 21L17 21L17 20L19 20L19 21L20 21L20 20L19 20L19 19L21 19L21 18L20 18L20 17L18 17L18 16L19 16L19 14L21 14L21 11L19 11L19 10L18 10L18 8L16 8L16 9L15 9L15 10L16 10L16 9L17 9L17 11L15 11L15 13L16 13L16 14L17 14L17 13L18 13L18 15L17 15L17 16L15 16L15 14L14 14L14 10L12 10L12 9L11 9L11 11L10 11L10 8L13 8L13 5L11 5L11 3L12 3L12 4L13 4L13 1L12 1L12 0ZM11 6L11 7L12 7L12 6ZM10 12L10 14L9 14L9 16L10 16L10 17L12 17L12 18L11 18L11 19L12 19L12 18L13 18L13 19L14 19L14 20L15 20L15 19L16 19L16 20L17 20L17 19L16 19L16 18L15 18L15 17L14 17L14 16L13 16L13 15L14 15L14 14L13 14L13 12L12 12L12 13L11 13L11 12ZM16 12L16 13L17 13L17 12ZM10 14L10 16L11 16L11 15L13 15L13 14ZM20 15L20 16L21 16L21 15ZM17 17L17 18L18 18L18 19L19 19L19 18L18 18L18 17ZM14 18L14 19L15 19L15 18ZM0 0L0 7L7 7L7 0ZM1 1L1 6L6 6L6 1ZM2 2L2 5L5 5L5 2ZM14 0L14 7L21 7L21 0ZM15 1L15 6L20 6L20 1ZM16 2L16 5L19 5L19 2ZM0 14L0 21L7 21L7 14ZM1 15L1 20L6 20L6 15ZM2 16L2 19L5 19L5 16Z" fill="#000000"/></g></g></svg>
