<?xml version="1.0" encoding="UTF-8"?>
<svg xmlns="http://www.w3.org/2000/svg" version="1.1" width="512" height="512" viewBox="0 0 512 512"><rect x="0" y="0" width="512" height="512" fill="#ffffff"/><g transform="scale(17.655)"><g transform="translate(0,0)"><path fill-rule="evenodd" d="M8 0L8 4L9 4L9 5L8 5L8 7L9 7L9 6L10 6L10 9L11 9L11 8L12 8L12 9L13 9L13 8L12 8L12 7L13 7L13 6L14 6L14 10L15 10L15 11L14 11L14 12L13 12L13 11L12 11L12 12L11 12L11 13L10 13L10 14L9 14L9 15L8 15L8 16L6 16L6 15L7 15L7 14L6 14L6 15L5 15L5 14L4 14L4 11L5 11L5 10L6 10L6 11L8 11L8 12L5 12L5 13L9 13L9 12L10 12L10 11L11 11L11 10L9 10L9 11L8 11L8 10L6 10L6 9L7 9L7 8L4 8L4 9L5 9L5 10L3 10L3 9L2 9L2 8L0 8L0 10L1 10L1 11L2 11L2 12L1 12L1 13L0 13L0 15L2 15L2 14L4 14L4 15L3 15L3 16L2 16L2 17L0 17L0 18L3 18L3 19L2 19L2 20L0 20L0 21L2 21L2 20L3 20L3 19L4 19L4 21L8 21L8 22L9 22L9 21L10 21L10 22L11 22L11 24L9 24L9 23L8 23L8 25L9 25L9 27L8 27L8 29L9 29L9 28L10 28L10 29L12 29L12 28L13 28L13 29L15 29L15 28L17 28L17 29L19 29L19 28L18 28L18 27L19 27L19 26L20 26L20 25L21 25L21 26L22 26L22 28L20 28L20 29L22 29L22 28L23 28L23 29L24 29L24 27L23 27L23 26L22 26L22 25L24 25L24 26L25 26L25 25L26 25L26 27L25 27L25 29L28 29L28 28L29 28L29 25L28 25L28 24L27 24L27 25L26 25L26 24L25 24L25 22L26 22L26 23L29 23L29 21L28 21L28 20L29 20L29 17L28 17L28 16L26 16L26 15L29 15L29 8L25 8L25 9L24 9L24 8L23 8L23 10L22 10L22 9L21 9L21 10L20 10L20 8L21 8L21 5L20 5L20 4L21 4L21 2L20 2L20 0L19 0L19 2L20 2L20 4L19 4L19 3L18 3L18 2L16 2L16 3L15 3L15 4L14 4L14 3L13 3L13 1L14 1L14 2L15 2L15 1L16 1L16 0L13 0L13 1L11 1L11 2L12 2L12 5L13 5L13 6L12 6L12 7L11 7L11 3L10 3L10 2L9 2L9 0ZM13 4L13 5L14 5L14 4ZM16 4L16 5L15 5L15 7L16 7L16 6L17 6L17 7L18 7L18 6L19 6L19 8L20 8L20 6L19 6L19 5L18 5L18 4ZM15 8L15 9L16 9L16 10L17 10L17 8ZM1 9L1 10L2 10L2 9ZM25 9L25 10L23 10L23 11L22 11L22 12L21 12L21 11L20 11L20 10L18 10L18 12L17 12L17 11L16 11L16 14L18 14L18 15L19 15L19 16L20 16L20 18L19 18L19 17L17 17L17 16L16 16L16 15L14 15L14 17L16 17L16 18L17 18L17 19L20 19L20 20L24 20L24 18L23 18L23 16L25 16L25 15L26 15L26 14L25 14L25 15L24 15L24 14L22 14L22 13L24 13L24 12L26 12L26 13L27 13L27 14L28 14L28 13L27 13L27 12L28 12L28 11L27 11L27 9ZM25 10L25 11L26 11L26 10ZM12 12L12 13L11 13L11 14L12 14L12 13L13 13L13 14L14 14L14 13L13 13L13 12ZM20 12L20 13L18 13L18 14L20 14L20 13L21 13L21 12ZM1 13L1 14L2 14L2 13ZM21 14L21 15L20 15L20 16L21 16L21 18L20 18L20 19L23 19L23 18L22 18L22 16L23 16L23 15L22 15L22 14ZM4 15L4 16L5 16L5 17L6 17L6 18L5 18L5 20L7 20L7 19L8 19L8 18L9 18L9 17L10 17L10 19L9 19L9 20L8 20L8 21L9 21L9 20L12 20L12 21L11 21L11 22L12 22L12 21L13 21L13 22L15 22L15 21L16 21L16 22L18 22L18 23L20 23L20 21L17 21L17 20L15 20L15 21L13 21L13 20L14 20L14 19L15 19L15 18L13 18L13 17L12 17L12 16L13 16L13 15L12 15L12 16L11 16L11 17L10 17L10 15L9 15L9 16L8 16L8 17L6 17L6 16L5 16L5 15ZM6 18L6 19L7 19L7 18ZM25 18L25 20L26 20L26 21L27 21L27 18ZM12 19L12 20L13 20L13 19ZM21 21L21 24L24 24L24 21ZM22 22L22 23L23 23L23 22ZM12 23L12 24L11 24L11 25L10 25L10 28L12 28L12 27L13 27L13 28L14 28L14 27L15 27L15 26L13 26L13 25L12 25L12 24L13 24L13 23ZM14 23L14 25L16 25L16 26L17 26L17 24L16 24L16 23ZM27 25L27 26L28 26L28 25ZM26 27L26 28L27 28L27 27ZM0 0L0 7L7 7L7 0ZM1 1L1 6L6 6L6 1ZM2 2L2 5L5 5L5 2ZM22 0L22 7L29 7L29 0ZM23 1L23 6L28 6L28 1ZM24 2L24 5L27 5L27 2ZM0 22L0 29L7 29L7 22ZM1 23L1 28L6 28L6 23ZM2 24L2 27L5 27L5 24Z" fill="#000000"/></g></g></svg>
