<?xml version="1.0" encoding="UTF-8"?>
<svg xmlns="http://www.w3.org/2000/svg" version="1.1" width="512" height="512" viewBox="0 0 512 512"><rect x="0" y="0" width="512" height="512" fill="#ffffff"/><g transform="scale(24.381)"><g transform="translate(0,0)"><path fill-rule="evenodd" d="M8 0L8 2L9 2L9 4L8 4L8 9L7 9L7 8L5 8L5 9L7 9L7 10L6 10L6 11L5 11L5 10L4 10L4 9L3 9L3 8L0 8L0 12L1 12L1 13L8 13L8 14L10 14L10 12L11 12L11 11L10 11L10 9L12 9L12 11L13 11L13 12L12 12L12 15L10 15L10 16L9 16L9 15L8 15L8 16L9 16L9 17L10 17L10 19L11 19L11 21L12 21L12 19L13 19L13 21L14 21L14 18L13 18L13 16L14 16L14 15L15 15L15 14L14 14L14 13L13 13L13 12L14 12L14 11L15 11L15 10L16 10L16 11L17 11L17 13L16 13L16 15L17 15L17 16L18 16L18 15L20 15L20 16L21 16L21 12L20 12L20 13L19 13L19 12L18 12L18 11L21 11L21 8L19 8L19 9L17 9L17 8L13 8L13 9L12 9L12 7L13 7L13 6L12 6L12 7L11 7L11 5L13 5L13 3L12 3L12 2L13 2L13 0ZM10 1L10 2L11 2L11 1ZM10 3L10 4L9 4L9 7L10 7L10 5L11 5L11 3ZM2 9L2 10L1 10L1 11L2 11L2 12L3 12L3 9ZM13 9L13 11L14 11L14 9ZM19 9L19 10L20 10L20 9ZM17 10L17 11L18 11L18 10ZM4 11L4 12L5 12L5 11ZM6 11L6 12L7 12L7 11ZM8 11L8 13L9 13L9 12L10 12L10 11ZM17 13L17 14L19 14L19 13ZM12 15L12 16L13 16L13 15ZM10 16L10 17L11 17L11 19L12 19L12 17L11 17L11 16ZM16 17L16 19L15 19L15 20L16 20L16 21L17 21L17 20L18 20L18 18L17 18L17 17ZM8 18L8 21L9 21L9 18ZM19 18L19 19L21 19L21 18ZM16 19L16 20L17 20L17 19ZM20 20L20 21L21 21L21 20ZM0 0L0 7L7 7L7 0ZM1 1L1 6L6 6L6 1ZM2 2L2 5L5 5L5 2ZM14 0L14 7L21 7L21 0ZM15 1L15 6L20 6L20 1ZM16 2L16 5L19 5L19 2ZM0 14L0 21L7 21L7 14ZM1 15L1 20L6 20L6 15ZM2 16L2 19L5 19L5 16Z" fill="#000000"/></g></g></svg>
