<?xml version="1.0" encoding="UTF-8"?>
<svg xmlns="http://www.w3.org/2000/svg" version="1.1" width="512" height="512" viewBox="0 0 512 512"><rect x="0" y="0" width="512" height="512" fill="#ffffff"/><g transform="scale(24.381)"><g transform="translate(0,0)"><path fill-rule="evenodd" d="M8 0L8 1L9 1L9 0ZM10 0L10 3L9 3L9 2L8 2L8 5L11 5L11 6L10 6L10 7L9 7L9 6L8 6L8 7L9 7L9 8L8 8L8 9L9 9L9 10L8 10L8 11L7 11L7 10L6 10L6 9L7 9L7 8L6 8L6 9L5 9L5 10L6 10L6 11L7 11L7 12L5 12L5 11L4 11L4 8L0 8L0 9L1 9L1 11L0 11L0 13L4 13L4 12L5 12L5 13L7 13L7 12L9 12L9 13L8 13L8 14L9 14L9 15L11 15L11 16L10 16L10 17L12 17L12 18L10 18L10 19L9 19L9 17L8 17L8 21L10 21L10 19L13 19L13 21L17 21L17 19L19 19L19 18L17 18L17 19L15 19L15 18L16 18L16 16L15 16L15 18L14 18L14 15L13 15L13 16L12 16L12 14L15 14L15 15L17 15L17 17L19 17L19 15L20 15L20 12L18 12L18 11L16 11L16 10L18 10L18 9L19 9L19 8L16 8L16 9L14 9L14 8L11 8L11 6L12 6L12 7L13 7L13 6L12 6L12 5L13 5L13 3L12 3L12 2L11 2L11 0ZM10 3L10 4L12 4L12 3ZM9 8L9 9L10 9L10 10L9 10L9 12L10 12L10 10L11 10L11 13L13 13L13 12L15 12L15 14L16 14L16 12L15 12L15 10L13 10L13 9L10 9L10 8ZM20 8L20 11L21 11L21 8ZM2 9L2 10L3 10L3 9ZM17 12L17 13L18 13L18 14L17 14L17 15L19 15L19 13L18 13L18 12ZM20 16L20 17L21 17L21 16ZM13 18L13 19L14 19L14 18ZM20 19L20 20L21 20L21 19ZM18 20L18 21L19 21L19 20ZM0 0L0 7L7 7L7 0ZM1 1L1 6L6 6L6 1ZM2 2L2 5L5 5L5 2ZM14 0L14 7L21 7L21 0ZM15 1L15 6L20 6L20 1ZM16 2L16 5L19 5L19 2ZM0 14L0 21L7 21L7 14ZM1 15L1 20L6 20L6 15ZM2 16L2 19L5 19L5 16Z" fill="#000000"/></g></g></svg>
