<?xml version="1.0" encoding="UTF-8"?>
<svg xmlns="http://www.w3.org/2000/svg" version="1.1" width="512" height="512" viewBox="0 0 512 512"><rect x="0" y="0" width="512" height="512" fill="#ffffff"/><g transform="scale(24.381)"><g transform="translate(0,0)"><path fill-rule="evenodd" d="M9 0L9 1L8 1L8 2L9 2L9 3L8 3L8 4L10 4L10 5L8 5L8 7L9 7L9 6L10 6L10 8L6 8L6 9L7 9L7 10L5 10L5 8L0 8L0 9L2 9L2 10L1 10L1 11L0 11L0 13L1 13L1 11L2 11L2 12L3 12L3 11L4 11L4 10L5 10L5 12L4 12L4 13L8 13L8 15L9 15L9 16L8 16L8 21L10 21L10 20L12 20L12 19L13 19L13 20L14 20L14 21L15 21L15 20L14 20L14 19L15 19L15 16L19 16L19 14L21 14L21 13L20 13L20 12L21 12L21 11L20 11L20 12L19 12L19 10L18 10L18 8L17 8L17 9L16 9L16 8L15 8L15 9L14 9L14 8L13 8L13 10L11 10L11 11L10 11L10 8L11 8L11 9L12 9L12 8L11 8L11 6L12 6L12 7L13 7L13 5L11 5L11 4L10 4L10 2L9 2L9 1L10 1L10 0ZM11 1L11 3L13 3L13 1ZM19 8L19 9L20 9L20 10L21 10L21 9L20 9L20 8ZM8 10L8 11L9 11L9 10ZM13 10L13 11L11 11L11 13L9 13L9 15L10 15L10 17L9 17L9 18L10 18L10 17L11 17L11 13L12 13L12 14L14 14L14 16L13 16L13 17L12 17L12 18L13 18L13 19L14 19L14 18L13 18L13 17L14 17L14 16L15 16L15 15L18 15L18 12L17 12L17 10ZM6 11L6 12L7 12L7 11ZM13 11L13 12L12 12L12 13L13 13L13 12L14 12L14 14L17 14L17 12L14 12L14 11ZM16 17L16 18L18 18L18 19L17 19L17 20L19 20L19 21L20 21L20 20L19 20L19 18L20 18L20 17ZM9 19L9 20L10 20L10 19ZM0 0L0 7L7 7L7 0ZM1 1L1 6L6 6L6 1ZM2 2L2 5L5 5L5 2ZM14 0L14 7L21 7L21 0ZM15 1L15 6L20 6L20 1ZM16 2L16 5L19 5L19 2ZM0 14L0 21L7 21L7 14ZM1 15L1 20L6 20L6 15ZM2 16L2 19L5 19L5 16Z" fill="#000000"/></g></g></svg>
