<?xml version="1.0" encoding="UTF-8"?>
<svg xmlns="http://www.w3.org/2000/svg" version="1.1" width="512" height="512" viewBox="0 0 512 512"><rect x="0" y="0" width="512" height="512" fill="#ffffff"/><g transform="scale(17.655)"><g transform="translate(0,0)"><path fill-rule="evenodd" d="M8 0L8 4L9 4L9 5L8 5L8 7L9 7L9 6L10 6L10 9L11 9L11 8L12 8L12 9L13 9L13 8L12 8L12 7L13 7L13 6L14 6L14 10L15 10L15 11L14 11L14 12L13 12L13 11L12 11L12 12L11 12L11 13L9 13L9 12L10 12L10 11L11 11L11 10L9 10L9 9L7 9L7 8L4 8L4 9L3 9L3 10L2 10L2 8L0 8L0 11L1 11L1 10L2 10L2 12L3 12L3 13L2 13L2 15L1 15L1 14L0 14L0 16L1 16L1 17L0 17L0 18L1 18L1 17L2 17L2 18L5 18L5 19L7 19L7 20L5 20L5 21L7 21L7 20L8 20L8 22L10 22L10 23L11 23L11 24L9 24L9 23L8 23L8 25L9 25L9 26L11 26L11 24L12 24L12 25L13 25L13 26L15 26L15 27L14 27L14 28L13 28L13 27L12 27L12 28L11 28L11 29L12 29L12 28L13 28L13 29L15 29L15 28L17 28L17 29L19 29L19 28L18 28L18 27L19 27L19 26L20 26L20 25L21 25L21 26L22 26L22 28L20 28L20 29L22 29L22 28L23 28L23 29L24 29L24 27L23 27L23 26L22 26L22 25L24 25L24 26L25 26L25 25L26 25L26 27L25 27L25 29L28 29L28 28L29 28L29 25L28 25L28 24L27 24L27 25L26 25L26 24L25 24L25 22L26 22L26 23L29 23L29 17L27 17L27 16L28 16L28 15L29 15L29 8L25 8L25 9L24 9L24 8L23 8L23 10L22 10L22 9L21 9L21 10L20 10L20 8L21 8L21 5L20 5L20 4L21 4L21 2L20 2L20 0L19 0L19 2L20 2L20 4L19 4L19 3L18 3L18 2L16 2L16 3L15 3L15 4L14 4L14 3L13 3L13 1L14 1L14 2L15 2L15 1L16 1L16 0L13 0L13 1L11 1L11 2L12 2L12 5L13 5L13 6L12 6L12 7L11 7L11 3L10 3L10 2L9 2L9 0ZM13 4L13 5L14 5L14 4ZM16 4L16 5L15 5L15 7L16 7L16 6L17 6L17 7L18 7L18 6L19 6L19 8L20 8L20 6L19 6L19 5L18 5L18 4ZM15 8L15 9L16 9L16 10L17 10L17 8ZM4 9L4 10L5 10L5 11L6 11L6 12L7 12L7 11L8 11L8 12L9 12L9 10L7 10L7 9ZM25 9L25 10L23 10L23 11L22 11L22 12L21 12L21 11L20 11L20 10L18 10L18 12L17 12L17 11L16 11L16 14L18 14L18 15L19 15L19 16L20 16L20 18L19 18L19 17L17 17L17 16L16 16L16 15L14 15L14 17L16 17L16 18L17 18L17 19L18 19L18 20L19 20L19 19L20 19L20 20L24 20L24 18L23 18L23 16L25 16L25 15L26 15L26 16L27 16L27 15L26 15L26 14L25 14L25 15L24 15L24 14L22 14L22 13L24 13L24 12L26 12L26 13L27 13L27 14L28 14L28 13L27 13L27 12L28 12L28 11L27 11L27 9ZM6 10L6 11L7 11L7 10ZM25 10L25 11L26 11L26 10ZM4 12L4 13L3 13L3 15L5 15L5 16L4 16L4 17L5 17L5 18L7 18L7 19L8 19L8 18L9 18L9 21L10 21L10 22L12 22L12 21L13 21L13 22L15 22L15 21L16 21L16 22L17 22L17 23L18 23L18 24L19 24L19 23L20 23L20 21L17 21L17 20L15 20L15 21L13 21L13 20L14 20L14 19L15 19L15 18L13 18L13 17L12 17L12 16L13 16L13 15L12 15L12 16L11 16L11 14L12 14L12 13L13 13L13 14L14 14L14 13L13 13L13 12L12 12L12 13L11 13L11 14L9 14L9 15L8 15L8 13L5 13L5 12ZM20 12L20 13L18 13L18 14L20 14L20 13L21 13L21 12ZM4 13L4 14L5 14L5 13ZM6 14L6 15L7 15L7 16L5 16L5 17L7 17L7 18L8 18L8 15L7 15L7 14ZM21 14L21 15L20 15L20 16L21 16L21 18L20 18L20 19L23 19L23 18L22 18L22 16L23 16L23 15L22 15L22 14ZM2 16L2 17L3 17L3 16ZM9 16L9 17L10 17L10 16ZM10 18L10 20L11 20L11 21L12 21L12 20L13 20L13 19L12 19L12 20L11 20L11 18ZM18 18L18 19L19 19L19 18ZM25 18L25 20L26 20L26 21L28 21L28 20L27 20L27 18ZM2 19L2 20L0 20L0 21L4 21L4 20L3 20L3 19ZM21 21L21 24L24 24L24 21ZM18 22L18 23L19 23L19 22ZM22 22L22 23L23 23L23 22ZM12 23L12 24L13 24L13 23ZM14 23L14 25L16 25L16 26L17 26L17 24L16 24L16 23ZM27 25L27 26L28 26L28 25ZM8 27L8 29L10 29L10 27ZM26 27L26 28L27 28L27 27ZM0 0L0 7L7 7L7 0ZM1 1L1 6L6 6L6 1ZM2 2L2 5L5 5L5 2ZM22 0L22 7L29 7L29 0ZM23 1L23 6L28 6L28 1ZM24 2L24 5L27 5L27 2ZM0 22L0 29L7 29L7 22ZM1 23L1 28L6 28L6 23ZM2 24L2 27L5 27L5 24Z" fill="#000000"/></g></g></svg>
