<?xml version="1.0" encoding="UTF-8"?>
<svg xmlns="http://www.w3.org/2000/svg" version="1.1" width="512" height="512" viewBox="0 0 512 512"><rect x="0" y="0" width="512" height="512" fill="#ffffff"/><g transform="scale(24.381)"><g transform="translate(0,0)"><path fill-rule="evenodd" d="M8 0L8 1L9 1L9 2L8 2L8 5L11 5L11 6L10 6L10 7L9 7L9 6L8 6L8 7L9 7L9 8L8 8L8 9L9 9L9 8L10 8L10 9L11 9L11 10L10 10L10 13L9 13L9 10L5 10L5 9L4 9L4 8L0 8L0 13L1 13L1 12L3 12L3 13L5 13L5 11L8 11L8 14L11 14L11 15L9 15L9 16L10 16L10 17L8 17L8 21L10 21L10 20L14 20L14 21L15 21L15 20L17 20L17 19L19 19L19 18L17 18L17 19L14 19L14 18L13 18L13 17L14 17L14 15L15 15L15 16L17 16L17 17L19 17L19 15L20 15L20 13L21 13L21 12L20 12L20 11L21 11L21 8L20 8L20 11L19 11L19 12L18 12L18 11L16 11L16 10L18 10L18 9L19 9L19 8L16 8L16 10L15 10L15 12L14 12L14 13L11 13L11 12L12 12L12 11L11 11L11 10L12 10L12 9L11 9L11 6L12 6L12 7L13 7L13 6L12 6L12 5L13 5L13 2L12 2L12 5L11 5L11 4L10 4L10 3L11 3L11 2L10 2L10 1L11 1L11 0ZM9 2L9 3L10 3L10 2ZM6 8L6 9L7 9L7 8ZM13 8L13 9L14 9L14 8ZM1 9L1 11L2 11L2 10L3 10L3 9ZM4 10L4 11L3 11L3 12L4 12L4 11L5 11L5 10ZM6 12L6 13L7 13L7 12ZM16 12L16 13L14 13L14 14L16 14L16 13L18 13L18 14L17 14L17 15L19 15L19 13L20 13L20 12L19 12L19 13L18 13L18 12ZM12 14L12 15L11 15L11 17L10 17L10 18L9 18L9 19L10 19L10 18L12 18L12 17L13 17L13 14ZM20 16L20 17L21 17L21 16ZM20 19L20 20L21 20L21 19ZM18 20L18 21L19 21L19 20ZM0 0L0 7L7 7L7 0ZM1 1L1 6L6 6L6 1ZM2 2L2 5L5 5L5 2ZM14 0L14 7L21 7L21 0ZM15 1L15 6L20 6L20 1ZM16 2L16 5L19 5L19 2ZM0 14L0 21L7 21L7 14ZM1 15L1 20L6 20L6 15ZM2 16L2 19L5 19L5 16Z" fill="#000000"/></g></g></svg>
