<?xml version="1.0" encoding="UTF-8"?>
<svg xmlns="http://www.w3.org/2000/svg" version="1.1" width="512" height="512" viewBox="0 0 512 512"><rect x="0" y="0" width="512" height="512" fill="#ffffff"/><g transform="scale(20.48)"><g transform="translate(0,0)"><path fill-rule="evenodd" d="M8 0L8 2L10 2L10 4L8 4L8 9L7 9L7 8L5 8L5 9L3 9L3 8L0 8L0 9L1 9L1 10L0 10L0 11L1 11L1 10L2 10L2 11L3 11L3 12L4 12L4 13L3 13L3 14L0 14L0 15L4 15L4 16L3 16L3 17L4 17L4 16L5 16L5 17L8 17L8 18L9 18L9 19L8 19L8 20L9 20L9 22L8 22L8 25L11 25L11 24L13 24L13 25L15 25L15 23L16 23L16 25L17 25L17 24L18 24L18 23L16 23L16 21L17 21L17 22L18 22L18 21L20 21L20 24L19 24L19 25L21 25L21 24L22 24L22 23L25 23L25 22L24 22L24 21L25 21L25 20L24 20L24 19L25 19L25 17L24 17L24 15L25 15L25 13L24 13L24 14L22 14L22 15L21 15L21 14L20 14L20 13L19 13L19 11L20 11L20 12L21 12L21 13L22 13L22 11L23 11L23 12L24 12L24 11L25 11L25 10L24 10L24 11L23 11L23 10L21 10L21 11L20 11L20 9L21 9L21 8L15 8L15 4L16 4L16 3L17 3L17 1L16 1L16 3L14 3L14 0L11 0L11 1L9 1L9 0ZM11 1L11 2L12 2L12 1ZM11 3L11 4L12 4L12 6L11 6L11 5L9 5L9 8L10 8L10 6L11 6L11 7L12 7L12 6L13 6L13 8L11 8L11 10L9 10L9 9L8 9L8 10L7 10L7 9L5 9L5 12L7 12L7 13L4 13L4 15L5 15L5 16L8 16L8 15L9 15L9 16L10 16L10 19L11 19L11 20L10 20L10 21L11 21L11 22L9 22L9 23L12 23L12 21L11 21L11 20L13 20L13 19L14 19L14 21L13 21L13 22L15 22L15 19L16 19L16 18L15 18L15 17L14 17L14 18L13 18L13 16L14 16L14 15L15 15L15 16L16 16L16 15L15 15L15 13L16 13L16 12L17 12L17 13L18 13L18 12L17 12L17 11L16 11L16 12L15 12L15 8L14 8L14 6L13 6L13 5L14 5L14 4L13 4L13 3ZM16 5L16 7L17 7L17 5ZM23 8L23 9L25 9L25 8ZM2 9L2 10L3 10L3 9ZM13 9L13 10L14 10L14 9ZM17 9L17 10L18 10L18 11L19 11L19 10L18 10L18 9ZM6 10L6 11L7 11L7 12L8 12L8 13L7 13L7 14L6 14L6 15L7 15L7 14L8 14L8 13L10 13L10 11L9 11L9 10L8 10L8 11L7 11L7 10ZM11 10L11 11L12 11L12 10ZM11 12L11 13L12 13L12 15L11 15L11 14L10 14L10 16L13 16L13 14L14 14L14 13L13 13L13 12ZM18 14L18 16L20 16L20 14ZM22 15L22 18L23 18L23 15ZM0 16L0 17L2 17L2 16ZM17 17L17 20L20 20L20 17ZM11 18L11 19L12 19L12 18ZM18 18L18 19L19 19L19 18ZM22 19L22 22L21 22L21 23L22 23L22 22L23 22L23 21L24 21L24 20L23 20L23 19ZM13 23L13 24L14 24L14 23ZM24 24L24 25L25 25L25 24ZM0 0L0 7L7 7L7 0ZM1 1L1 6L6 6L6 1ZM2 2L2 5L5 5L5 2ZM18 0L18 7L25 7L25 0ZM19 1L19 6L24 6L24 1ZM20 2L20 5L23 5L23 2ZM0 18L0 25L7 25L7 18ZM1 19L1 24L6 24L6 19ZM2 20L2 23L5 23L5 20Z" fill="#000000"/></g></g></svg>
